<?xml version="1.0" encoding="UTF-8" standalone="no"?>
<svg
   xmlns:dc="http://purl.org/dc/elements/1.1/"
   xmlns:cc="http://creativecommons.org/ns#"
   xmlns:rdf="http://www.w3.org/1999/02/22-rdf-syntax-ns#"
   xmlns:svg="http://www.w3.org/2000/svg"
   xmlns="http://www.w3.org/2000/svg"
   xmlns:sodipodi="http://sodipodi.sourceforge.net/DTD/sodipodi-0.dtd"
   xmlns:inkscape="http://www.inkscape.org/namespaces/inkscape"
   inkscape:version="1.0beta2 (2b71d25, 2019-12-03)"
   sodipodi:docname="full_logo.svg"
   viewBox="0 0 2274.5451 313.54871"
   height="313.54871"
   width="2274.5452"
   xml:space="preserve"
   id="svg905"
   version="1.1"><metadata
     id="metadata911"><rdf:RDF><cc:Work
         rdf:about=""><dc:format>image/svg+xml</dc:format><dc:type
           rdf:resource="http://purl.org/dc/dcmitype/StillImage" /><dc:title></dc:title></cc:Work></rdf:RDF></metadata><defs
     id="defs909" /><sodipodi:namedview
     inkscape:current-layer="g913"
     inkscape:window-maximized="1"
     inkscape:window-y="23"
     inkscape:window-x="0"
     inkscape:cy="1946.9259"
     inkscape:cx="-1010.0728"
     inkscape:zoom="0.069853685"
     fit-margin-bottom="0"
     fit-margin-right="0"
     fit-margin-left="0"
     fit-margin-top="0"
     showgrid="false"
     id="namedview907"
     inkscape:window-height="1075"
     inkscape:window-width="1792"
     inkscape:pageshadow="2"
     inkscape:pageopacity="0"
     guidetolerance="10"
     gridtolerance="10"
     objecttolerance="10"
     borderopacity="1"
     inkscape:document-rotation="0"
     bordercolor="#666666"
     pagecolor="#ffffff" /><g
     transform="matrix(1.3333333,0,0,-1.3333333,-5.2083264e-4,3893.8526)"
     inkscape:label="ink_ext_XXXXXX"
     inkscape:groupmode="layer"
     id="g913"><g
       transform="scale(0.1)"
       id="g915"><g
         transform="scale(1.76185)"
         id="g917"><path
           inkscape:connector-curvature="0"
           id="path919"
           style="fill:#2855a3;fill-opacity:1;fill-rule:nonzero;stroke:none"
           d="m 2101.91,16300 c 21.6,0 35.45,-6.1 41.57,-18.3 6.09,-12.2 9.15,-30.1 9.15,-53.5 0,-23.5 -3.06,-41.1 -9.15,-52.9 -6.12,-11.7 -19.97,-17.6 -41.57,-17.6 h -109.88 c -69.51,0 -117.88,-8.9 -145.11,-26.8 -27.25,-17.8 -40.85,-42.7 -40.85,-74.6 v -491.7 c 0,-27.2 -7.53,-45.1 -22.54,-53.5 -15.03,-8.5 -37.57,-12.7 -67.62,-12.7 -30.07,0 -52.37,4.2 -66.91,12.7 -14.58,8.4 -21.84,26.3 -21.84,53.5 v 491.7 c 0,81.7 31.21,142.7 93.68,183.1 62.45,40.4 152.85,60.6 271.19,60.6 h 109.88" /></g><g
         transform="scale(1.78682)"
         id="g921"><path
           inkscape:connector-curvature="0"
           id="path923"
           style="fill:#6dd0f6;fill-opacity:1;fill-rule:nonzero;stroke:none"
           d="m 2251.71,16213.9 c 0,29.6 8.56,51.4 25.7,65.3 17.12,13.8 45.15,20.8 84.05,20.8 38.89,0 66.89,-7 84.04,-20.8 17.12,-13.9 25.69,-35.7 25.69,-65.3 0,-29.7 -8.57,-51.4 -25.69,-65.3 -17.15,-13.9 -45.15,-20.9 -84.04,-20.9 -38.9,0 -66.93,7 -84.05,20.9 -17.14,13.9 -25.7,35.6 -25.7,65.3" /></g><g
         transform="scale(1.76139)"
         id="g925"><path
           inkscape:connector-curvature="0"
           id="path927"
           style="fill:#2855a3;fill-opacity:1;fill-rule:nonzero;stroke:none"
           d="m 2485.74,15568.7 c 0,-27.3 -7.53,-45.1 -22.55,-53.6 -15.04,-8.5 -37.59,-12.7 -67.64,-12.7 -30.08,0 -52.38,4.2 -66.94,12.7 -14.57,8.5 -21.84,26.3 -21.84,53.6 v 665.1 c 0,27.2 7.27,45.1 21.84,53.5 14.56,8.5 36.86,12.7 66.94,12.7 30.05,0 52.6,-4.2 67.64,-12.7 15.02,-8.4 22.55,-26.3 22.55,-53.5 v -665.1" /></g><g
         transform="scale(1.76246)"
         id="g929"><path
           inkscape:connector-curvature="0"
           id="path931"
           style="fill:#2855a3;fill-opacity:1;fill-rule:nonzero;stroke:none"
           d="m 3288.36,15493 c -24.43,0 -44.37,3.1 -59.86,9.2 -15.49,6.1 -28.4,15.7 -38.73,28.9 l -553.45,685.8 c -8.45,9.4 -12.68,19.2 -12.68,29.6 0,15.9 10.32,28.9 30.98,38.7 20.64,9.9 45.53,14.8 74.64,14.8 15.96,0 32.15,-2.1 48.59,-6.3 16.41,-4.3 29.79,-13 40.13,-26.1 l 471.79,-591.5 473.19,592.9 c 9.36,12.2 21.82,20.4 37.31,24.7 15.49,4.2 31.2,6.3 47.18,6.3 26.28,0 49.51,-4.7 69.71,-14.1 20.18,-9.4 30.28,-22.1 30.28,-38 0,-9.4 -4.22,-19.7 -12.67,-31 l -547.83,-685.8 c -10.34,-13.2 -23.24,-22.8 -38.73,-28.9 -15.49,-6.1 -35.45,-9.2 -59.85,-9.2" /></g><g
         transform="scale(1.76185)"
         id="g933"><path
           inkscape:connector-curvature="0"
           id="path935"
           style="fill:#2855a3;fill-opacity:1;fill-rule:nonzero;stroke:none"
           d="m 4203.79,15960.5 h 764.97 v 94.4 c 0,32.8 -17.61,58.2 -52.83,76 -35.22,17.9 -92.76,26.8 -172.58,26.8 H 4429.2 c -78.9,0 -136.2,-9.8 -171.87,-29.6 -35.72,-19.7 -53.54,-44.1 -53.54,-73.2 z m 0,-139.5 v -71.8 c 0,-28.2 17.82,-52.4 53.54,-72.6 35.67,-20.2 92.97,-30.3 171.87,-30.3 h 162.01 c 21.58,0 35.43,-5.9 41.55,-17.6 6.1,-11.7 9.16,-29.3 9.16,-52.8 0,-23.5 -3.06,-41.4 -9.16,-53.5 -6.12,-12.3 -19.97,-18.4 -41.55,-18.4 h -167.65 c -265.8,0 -398.69,81.7 -398.69,245.2 v 305.7 c 0,163.4 132.89,245.1 398.69,245.1 h 325.42 c 140.89,0 242.53,-20.2 305.01,-60.6 62.46,-40.4 93.68,-101.9 93.68,-184.5 v -162 c 0,-27.3 -5.16,-46.1 -15.49,-56.4 -10.35,-10.3 -33.34,-15.5 -69.03,-15.5 h -859.36" /></g><g
         transform="scale(1.76185)"
         id="g937"><path
           inkscape:connector-curvature="0"
           id="path939"
           style="fill:#2855a3;fill-opacity:1;fill-rule:nonzero;stroke:none"
           d="m 5781.6,16300 c 21.63,0 35.48,-6.1 41.61,-18.3 6.07,-12.2 9.13,-30.1 9.13,-53.5 0,-23.5 -3.06,-41.1 -9.13,-52.9 -6.13,-11.7 -19.98,-17.6 -41.61,-17.6 h -109.87 c -69.51,0 -117.88,-8.9 -145.11,-26.8 -27.24,-17.8 -40.84,-42.7 -40.84,-74.6 v -491.7 c 0,-27.2 -7.53,-45.1 -22.54,-53.5 -15.04,-8.5 -37.58,-12.7 -67.63,-12.7 -30.07,0 -52.37,4.2 -66.91,12.7 -14.58,8.4 -21.84,26.3 -21.84,53.5 v 491.7 c 0,81.7 31.22,142.7 93.68,183.1 62.45,40.4 152.85,60.6 271.19,60.6 h 109.87" /></g><g
         transform="scale(1.76185)"
         id="g941"><path
           inkscape:connector-curvature="0"
           id="path943"
           style="fill:#6dd0f6;fill-opacity:1;fill-rule:nonzero;stroke:none"
           d="m 6711.42,15646.3 c 78.89,0 136.16,9.9 171.87,29.6 35.64,19.7 53.52,44.1 53.52,73.3 v 305.7 c 0,28.1 -17.88,52.3 -53.52,72.5 -35.71,20.2 -92.98,30.3 -171.87,30.3 h -326.87 c -78.9,0 -136.17,-10.1 -171.87,-30.3 -35.7,-20.2 -53.52,-44.4 -53.52,-72.5 v -408.6 z m -552.26,-312.7 c 0,-27.3 -7.55,-45.1 -22.53,-53.6 -15.04,-8.4 -37.58,-12.6 -67.66,-12.6 -30.03,0 -52.33,4.2 -66.92,12.6 -14.53,8.5 -21.79,26.3 -21.79,53.6 v 721.3 c 0,163.4 132.87,245.1 398.67,245.1 h 338.11 c 265.74,0 398.67,-81.7 398.67,-245.1 v -305.7 c 0,-163.5 -132.93,-245.2 -398.67,-245.2 h -557.88 v -170.4" /></g><g
         transform="scale(1.76185)"
         id="g945"><path
           inkscape:connector-curvature="0"
           id="path947"
           style="fill:#6dd0f6;fill-opacity:1;fill-rule:nonzero;stroke:none"
           d="m 8204.68,16054.9 c 0,29.1 -17.82,53.5 -53.52,73.2 -35.7,19.8 -92.97,29.6 -171.87,29.6 h -295.82 c -78.9,0 -136.22,-9.8 -171.87,-29.6 -35.7,-19.7 -53.58,-44.1 -53.58,-73.2 v -305.7 c 0,-28.2 17.88,-52.4 53.58,-72.6 35.65,-20.2 92.97,-30.3 171.87,-30.3 h 295.82 c 78.9,0 136.17,10.1 171.87,30.3 35.7,20.2 53.52,44.4 53.52,72.6 z m -925.56,0 c 0,163.4 132.93,245.1 398.67,245.1 h 307.12 c 265.8,0 398.68,-81.7 398.68,-245.1 v -305.7 c 0,-163.5 -132.88,-245.2 -398.68,-245.2 h -307.12 c -265.74,0 -398.67,81.7 -398.67,245.2 v 305.7" /></g><g
         transform="scale(1.78682)"
         id="g949"><path
           inkscape:connector-curvature="0"
           id="path951"
           style="fill:#6dd0f6;fill-opacity:1;fill-rule:nonzero;stroke:none"
           d="m 8826.23,15931.9 c -77.79,0 -134.31,-9.7 -169.46,-29.2 -35.2,-19.4 -52.77,-43.5 -52.77,-72.2 V 15529 c 0,-27.7 17.57,-51.6 52.77,-71.5 35.15,-19.9 91.67,-29.9 169.46,-29.9 h 322.25 c 77.79,0 134.26,10 169.46,29.9 35.21,19.9 52.78,43.8 52.78,71.5 v 402.9 z m 544.49,302.8 c 0,26.9 7.44,44.5 22.27,52.8 14.78,8.3 37,12.5 66.66,12.5 29.61,0 51.6,-4.2 65.98,-12.5 14.33,-8.3 21.55,-25.9 21.55,-52.8 V 15529 c 0,-161.1 -131.07,-241.7 -393.16,-241.7 h -333.38 c -262.03,0 -393.1,80.6 -393.1,241.7 v 301.5 c 0,161.1 131.07,241.7 393.1,241.7 h 550.08 v 162.5" /></g><g
         transform="scale(1.7465)"
         id="g953"><path
           inkscape:connector-curvature="0"
           id="path955"
           style="fill:#2855a3;fill-opacity:1;fill-rule:nonzero;stroke:none"
           d="m 796.624,15386.3 0.394,-0.1 c 26.374,-11.2 55.667,-14.4 83.58,-8.1 273.722,62.3 478.112,307.2 478.112,599.9 v 322 c -24.06,-5.2 -49,-11.1 -73.28,-17.8 h -0.23 c -119.27,-32.8 -223.63,-83.5 -148,-153.8 146.89,-136.4 -124.74,-189.4 -310.064,-229.2 -289.555,-62.2 -546.818,-293.1 -30.512,-512.9" /></g><g
         transform="scale(1.79165)"
         id="g957"><path
           inkscape:connector-curvature="0"
           id="path959"
           style="fill:#6dd0f6;fill-opacity:1;fill-rule:nonzero;stroke:none"
           d="m 0.00218025,15700.2 v -124.4 c 0,-51.1 49.97141975,-87 98.48421975,-71 57.6026,19.1 124.2506,35.7 201.1476,49.4 650.618,115.3 550.957,162.8 501.125,194 -49.832,31.2 -135.812,104.5 130.931,158 137,27.6 283.13,42.8 392.78,51.1 V 16300 H 599.809 C 268.544,16300 0.00218025,16031.5 0.00218025,15700.2" /></g><g
         transform="scale(1.7465)"
         id="g961"><path
           inkscape:connector-curvature="0"
           id="path963"
           style="fill:#c4c2c1;fill-opacity:1;fill-rule:nonzero;stroke:none"
           d="m 1285.43,16282.2 c 29.54,8.4 73.28,17.8 73.28,17.8 -24.06,-5.2 -49,-11.1 -73.28,-17.8" /></g><g
         transform="scale(1.7465)"
         id="g965"><path
           inkscape:connector-curvature="0"
           id="path967"
           style="fill:#22427a;fill-opacity:1;fill-rule:nonzero;stroke:none"
           d="m 796.624,15386.3 c -215.295,91.6 -296.082,185.2 -296.104,267.7 -0.034,115.3 157.805,208.9 326.616,245.2 148.406,31.9 352.154,72.2 352.014,157 -0.03,21.1 -12.69,45 -41.95,72.2 -17.88,16.6 -25.7,32.1 -25.64,46.6 0.17,46.6 82.56,82.2 173.64,107.2 h 0.23 v 0 c 24.28,6.7 49.22,12.6 73.28,17.8 v 0 -103.5 c -89.99,-32.3 -150.35,-77 -87.87,-134.9 146.9,-136.5 -124.74,-189.4 -310.059,-229.2 -260.265,-56 -494.479,-248.2 -164.157,-446.1" /></g></g></g></svg>
