<?xml version="1.0" encoding="UTF-8" standalone="no"?>
<svg xmlns:dc="http://purl.org/dc/elements/1.1/"
  xmlns:cc="http://creativecommons.org/ns#"
  xmlns:rdf="http://www.w3.org/1999/02/22-rdf-syntax-ns#"
  xmlns:svg="http://www.w3.org/2000/svg"
  xmlns="http://www.w3.org/2000/svg"
  xmlns:sodipodi="http://sodipodi.sourceforge.net/DTD/sodipodi-0.dtd"
  xmlns:inkscape="http://www.inkscape.org/namespaces/inkscape" version="1.1" id="svg833" xml:space="preserve" width="1691.9906" height="1676.8079" viewBox="0 0 1691.9906 1676.8079" sodipodi:docname="test.svg" inkscape:export-filename="/Users/remirousselet/Desktop/test.svg.png" inkscape:export-xdpi="96" inkscape:export-ydpi="96" inkscape:version="1.0beta2 (2b71d25, 2019-12-03)">
  <metadata id="metadata839">
    <rdf:RDF>
      <cc:Work rdf:about="">
        <dc:format>image/svg+xml</dc:format>
        <dc:type rdf:resource="http://purl.org/dc/dcmitype/StillImage" />
        <dc:title></dc:title>
      </cc:Work>
    </rdf:RDF>
  </metadata>
  <defs id="defs837" />
  <sodipodi:namedview fit-margin-bottom="0" fit-margin-right="0" fit-margin-left="0" fit-margin-top="0" pagecolor="#ffffff" bordercolor="#666666" inkscape:document-rotation="0" borderopacity="1" objecttolerance="10" gridtolerance="10" guidetolerance="10" inkscape:pageopacity="0" inkscape:pageshadow="2" inkscape:window-width="1792" inkscape:window-height="1075" id="namedview835" showgrid="false" inkscape:snap-page="true" inkscape:zoom="0.14076955" inkscape:cx="1292.5599" inkscape:cy="2084.1558" inkscape:window-x="0" inkscape:window-y="23" inkscape:window-maximized="1" inkscape:current-layer="g843" />
  <g id="g841" inkscape:groupmode="layer" inkscape:label="ink_ext_XXXXXX" transform="matrix(1.3333333,0,0,-1.3333333,-1.931474,3891.8827)">
    <g id="g843" transform="scale(0.1)">
      <path d="m 7454.7361,16719.72 c 1.2,-0.601 2.42,-1.101 3.66,-1.597 246.33,-103.902 519.9201,-134.402 780.6201,-75 2556.3998,581.796 4465.3998,2869.298 4465.3998,5602.898 v 3007.1 c -224.7,-48.9 -457.7,-104 -684.4,-166.4 h -2.1 c -1114,-305.8 -2088.5998,-780.1 -1382.4,-1436.5 1372,-1274.2 -1164.9998,-1768.2 -2895.7799,-2140.6 -2704.42,-580.4 -5107.18,-2737.7 -285,-4789.901" style="fill:#2855a3;fill-opacity:1;fill-rule:nonzero;stroke:none" id="path897" inkscape:connector-curvature="0" />
      <path d="m 14.486055,23442.221 v -1191.6 c 0,-489.5 478.799995,-833.5 943.620045,-680.1 551.9,182.2 1190.46,341.9 1927.21,472.7 6233.7001,1104.6 5278.8001,1560.2 4801.38,1858.7 -477.44,299.6 -1301.24,1001.7 1254.4201,1514.5 1312.6998,264.2 2712.6998,409.8 3763.2998,488.9 v 3283.8 H 5761.3561 c -3173.91,0 -5746.870045,-2573 -5746.870045,-5746.9" style="fill:#6dd0f6;fill-opacity:1;fill-rule:nonzero;stroke:none" id="path899" inkscape:connector-curvature="0" />
      <path d="m 12020.016,25086.721 c 275.9,78.9 684.4,166.4 684.4,166.4 -224.7,-48.9 -457.7,-104 -684.4,-166.4" style="fill:#c4c2c1;fill-opacity:1;fill-rule:nonzero;stroke:none" id="path901" inkscape:connector-curvature="0" />
      <path d="m 7454.7361,16719.72 c -2010.81,855.699 -2765.33,1729.801 -2765.55,2500.101 -0.31,1077 1473.85,1951.4 3050.55,2289.8 1385.1801,298 3286.5799,674 3287.5799,1465.3 0.3,197.5 -117.8,420.9 -391.8,675.3 -166.2,154.5 -239.3,298.9 -239.4,433.4 -0.4,436.9 770,769.3 1621.8,1003.1 h 2.1 v 0 c 226.7,62.4 459.7,117.5 684.4,166.4 v 0 -966.3 c -840.5,-301.6 -1404.2,-719.8 -820.7,-1260.7 1372,-1274.2 -1165,-1768.2 -2895.7998,-2140.6 -2430.8401,-522.2 -4618.2901,-2317.5 -1533.1801,-4165.801" style="fill:#22427a;fill-opacity:1;fill-rule:nonzero;stroke:none" id="path903" inkscape:connector-curvature="0" />
    </g>
  </g>
</svg>
