<svg version="1.1" xmlns="http://www.w3.org/2000/svg" viewBox="0 0 1011.6068996014948 484.6917569738144">
  <!-- svg-source:excalidraw -->
  <defs>
    <style>
      @font-face {
        font-family: "Virgil";
        src: url("https://excalidraw.com/FG_Virgil.woff2");
      }
      @font-face {
        font-family: "Cascadia";
        src: url("https://excalidraw.com/Cascadia.woff2");
      }
    </style>
  </defs>
  <rect x="0" y="0" width="1011.6068996014948" height="484.6917569738144" fill="#ffffff"></rect><g transform="translate(216.5468118261457 10) rotate(0 109.595703125 87.119140625)"><path d="M110.85415355861187 -1.1535722464323044 C138.38041142146625 24.04394508261088, 165.6161369570263 47.47160730618838, 220.2598156183958 89.18862183392048 M110.90839544683695 -0.8433857336640358 C143.7375759376533 25.737589767693137, 176.32288618503952 51.70733588647709, 219.69029418379068 87.81945201009512 M218.41309396922588 86.08789475262165 C178.0646608647416 120.79884620466706, 136.70812744221968 150.44892749069055, 108.1619414538145 173.31419833004475 M219.90122214704752 87.52316638082266 C179.1907843450326 122.5508807483784, 137.85218776808267 154.6368233288798, 110.14446274191141 173.59929605573416 M110.47452156245708 175.86862261593342 C80.30397245826694 155.0911006600567, 55.36496417018148 130.01254889759585, -0.6136213093996048 87.88577397167683 M109.270857013762 173.77719255536795 C87.05896004839771 156.39149069837586, 62.476843139072585 138.27844868479878, 0.13388673216104507 88.84644814580679 M1.9090418070554733 87.357068374753 C43.13980934232473 54.37948863878846, 85.62742617189885 18.942429671436543, 109.08498279750347 -0.795381709933281 M0.869106687605381 88.64891739934683 C22.55115043640137 69.30930828824638, 45.27562874823809 50.77253288403153, 109.34631029516459 -0.255742110311985" style="stroke: rgb(201, 42, 42); stroke-width: 1; fill: none;"></path></g><g transform="translate(275.39139887971703 74.11914062499994) rotate(0 50.5 23)"><text x="0" y="18" font-family="Helvetica" font-size="20px" fill="#000000" text-anchor="start">Do you use</text><text x="0" y="41" font-family="Helvetica" font-size="20px" fill="#000000" text-anchor="start">  Flutter?</text></g><g transform="translate(461.7979278975747 48.8521385853868) rotate(0 16.5 11.5)"><text x="0" y="18" font-family="Helvetica" font-size="20px" fill="#000000" text-anchor="start">Yes</text></g><g transform="translate(520.7372531707273 228.71428044979717) rotate(0 109.595703125 87.119140625)"><path d="M108.69651778042316 -0.3902211934328079 C133.57058322956263 21.85523807083868, 158.72537066320774 40.588075324647654, 220.83241303265095 89.03840534389019 M110.56830020993948 0.41943398863077164 C147.6561561340053 30.190868702548034, 184.71172538965126 61.104489836113935, 219.85772486776114 87.86599794775248 M217.32738907635212 86.02701084315777 C193.63476108034695 108.05747747058078, 163.5748130997471 131.2282058786109, 108.46848757565022 174.60204546153545 M218.81046267598867 87.47273889929056 C191.17588888793165 110.36888902872306, 162.12407993947474 132.1887386729548, 110.33349176496267 174.21926776319742 M110.93111498653889 176.08979646861553 C74.01168464029179 147.61951673575967, 39.88249770456896 117.85279978039324, 0.023217514157295227 88.7326258867979 M109.10416170209646 175.22780314832926 C73.41635407697905 146.93780004447035, 38.86979159158217 117.10047029908162, -0.645308293402195 88.32336918264627 M1.715215042233467 87.14530365169048 C24.819122823774816 66.50085628852247, 51.18998060643673 46.14557373747229, 108.64162237942219 1.7538770884275436 M0.09368439763784409 88.23955837637186 C40.182520217895515 55.077593626827, 80.4404009577632 22.612036629766223, 110.82342430204153 -0.48551615327596664" style="stroke: rgb(201, 42, 42); stroke-width: 1; fill: none;"></path></g><g transform="translate(567.3329562957273 292.8334210747976) rotate(0 63 23)"><text x="0" y="18" font-family="Helvetica" font-size="20px" fill="#000000" text-anchor="start"> Do you use</text><text x="0" y="41" font-family="Helvetica" font-size="20px" fill="#000000" text-anchor="start">flutter_hooks?</text></g><g><g transform="translate(434.75200362508735 96.78313078703701) rotate(0 98.74456938960628 59.335957216604044)"><path d="M-0.412655684351921 0.6974606484174728 C23.85405585964822 0.41345507476800464, 112.61094270244485 -22.21936165083339, 145.2899406403484 -0.7770257697061427 C177.96893857825194 20.665310111421107, 187.14470089508268 107.60433722774921, 195.66133194306934 129.35147593518096 M0.2036156520992516 1.6311424829810859 C24.500378220059506 1.190114487971602, 111.71608039193099 -23.187952465081118, 144.66577686050852 -2.106842420230878 C177.61547332908606 18.97426762461936, 189.30750634303365 106.47611526850103, 197.9017944635644 128.11780275208253" style="stroke: rgb(0, 0, 0); stroke-width: 1; fill: none;"></path></g><g transform="translate(434.75200362508735 96.78313078703701) rotate(0 98.74456938960628 59.335957216604044)"><path d="M181.83323203661067 103.43145561625305 C187.5684804605112 109.43658704737578, 190.99568526658953 117.38287655919088, 199.18013511614944 126.89944368404645 M180.28762602694852 103.48376321454587 C187.29959699239652 111.04877630583769, 192.06399047346733 118.9352600760926, 196.96916507946398 127.16480283988017" style="stroke: rgb(0, 0, 0); stroke-width: 1; fill: none;"></path></g><g transform="translate(434.75200362508735 96.78313078703701) rotate(0 98.74456938960628 59.335957216604044)"><path d="M201.65006337911052 98.10105244869109 C201.99391760516866 105.49931070604619, 199.98855050813629 114.90687311158801, 199.18013511614944 126.89944368404645 M200.10445736944837 98.15336004698392 C200.59328122133155 107.65122251298268, 198.82859669530248 117.29392136569962, 196.96916507946398 127.16480283988017" style="stroke: rgb(0, 0, 0); stroke-width: 1; fill: none;"></path></g></g><g transform="translate(491.89825451366175 253.09110940549778) rotate(0 16.5 11.5)"><text x="0" y="18" font-family="Helvetica" font-size="20px" fill="#000000" text-anchor="start">Yes</text></g><g transform="translate(260.4520863831061 421.2569509393316) rotate(0 92.64996408045971 26.717403017241395)"><path d="M-0.41004379093647003 -1.223832294344902 C71.70437127975183 2.4205466723879097, 142.6038663064948 -0.3689225697080374, 186.80790604890754 -0.39936892688274384 M0.6854755058884621 0.5881447419524193 C37.97416874787356 -0.20378671969279116, 75.18294408214382 0.4937471262086981, 185.86048782856633 0.775716982781887 M185.28711213411262 1.357570007443428 C184.98092884598685 19.182974365296996, 183.98938459931327 39.771394470220876, 184.11179580034187 53.09762859395869 M184.88696754963567 -0.021667279303073883 C184.8887568690399 15.599080857389282, 183.92822634955442 32.14874592523398, 185.22681153805425 54.02230370841153 M183.77374114335944 54.86128139547236 C147.77505006908362 52.91856292150744, 106.00577488836248 52.115147146208365, 0.8570141047239304 54.362655163325144 M186.21953881771734 53.96082032523282 C127.04369003869903 54.004664072291234, 69.35481788321586 54.018985637919286, 0.35531798750162125 52.98938072524197 M1.5024799555540085 51.644740582026316 C-0.34767414861186086 31.261647385338357, -0.32771326833231984 10.08785899822071, 0.14292900264263153 -0.6741134375333786 M0.13265220075845718 52.68918884596951 C0.0008313332349140223 37.76810649449835, -0.7713599528521221 21.638734042929528, -0.6031111106276512 -0.7764211073517799" style="stroke: rgb(54, 79, 199); stroke-width: 1; fill: none;"></path></g><g transform="translate(279.48805844719175 436.16903786461904) rotate(0 74 11.5)"><text x="0" y="18" font-family="Helvetica" font-size="20px" fill="#000000" text-anchor="start">hooks_riverpod</text></g><g transform="translate(804.7992487394262 421.16041717496324) rotate(0 98.4038254310343 26.717403017241395)"><path d="M-0.5113169401884079 -1.780019834637642 C53.23829362356166 -0.6897162826549164, 106.26068555938204 0.06017929000743716, 196.1260615715689 -0.9966417104005814 M0.7819015607237816 -0.829762302339077 C50.80855079434185 1.641905806204985, 101.49360914661226 1.3181016661140426, 197.42231967094605 0.6780733242630959 M195.30133546683257 0.6495565623044968 C195.06579032962088 11.327398979958106, 194.52378812854056 24.508583072416403, 197.2744499573416 54.293933958329035 M196.59643199089234 0.2538694515824318 C197.29249465507758 13.787235933241586, 195.83284771484625 26.432334897810897, 196.85933687332337 54.37025531432755 M196.57753146979277 53.34162148884661 C157.91421529078013 51.48098168535069, 114.09496954633784 51.84687457246617, 0.8673389703035355 52.75424155644305 M196.1150531971759 53.05292400024064 C133.29222755992544 51.80175290865213, 70.42810401007728 50.99685440820962, -0.25956491380929947 53.97685154578812 M1.1849468499422073 52.00419959477313 C-1.035358629906992 42.93228150430291, -0.33935423919043906 32.651791026137374, 1.5908311158418655 -0.9912071973085403 M0.4156460389494896 53.08475216529496 C0.627650759884373 33.18829926439153, -0.34431002312038766 13.798598377648268, 0.03223439306020737 -0.013612590730190277" style="stroke: rgb(54, 79, 199); stroke-width: 1; fill: none;"></path></g><g transform="translate(831.0554075851209 435.78963772094045) rotate(0 72.5 11.5)"><text x="0" y="18" font-family="Helvetica" font-size="20px" fill="#000000" text-anchor="start">flutter_riverpod</text></g><g transform="translate(750.8149821757737 259.3156099205708) rotate(0 13 11.5)"><text x="0" y="18" font-family="Helvetica" font-size="20px" fill="#000000" text-anchor="start">No</text></g><g transform="translate(10 187.73639547413893) rotate(0 53.65750294811323 26.717403017241395)"><path d="M-1.212576076388359 -0.2597833424806595 C27.762489869456456 -0.1091998437370667, 53.73348171862158 -0.7720087388481507, 107.07188220097215 0.17610637843608856 M0.987553559243679 0.19785825163125992 C37.46906981695026 0.4402160647285127, 72.79039167768418 -0.5606586930382109, 107.57315476758869 -0.895830474793911 M106.08394808842333 -0.3914404660463333 C107.96225788124124 11.934146376826472, 108.85371210105936 23.969617863253966, 105.71680684162767 54.76824149540789 M108.24000390394123 0.578830398619175 C107.97213380604342 11.342348310757227, 107.64597838192537 22.883858471430436, 107.8486958347121 53.18182667396195 M106.18089909626634 52.96546515873797 C70.91725741783304 53.9386870784468, 32.62708070522005 53.73269581028884, -0.4037596434354782 51.55305776051409 M108.21628959997089 53.300469480968786 C84.59968736995717 51.9201320413741, 62.6700587117208 53.07244026700582, 0.7364999875426292 53.02570470473893 M0.27407772839069366 51.44083318165667 C1.3292912560693746 37.952378081942626, 1.7585567551843648 17.55564356328326, 0.23912031948566437 -1.423058107495308 M0.2052290067076683 54.044188820339514 C-0.9633190172035972 39.42625398453977, 0.36862187215492326 24.68445592852519, -0.8211651220917702 -0.46160849183797836" style="stroke: rgb(54, 79, 199); stroke-width: 1; fill: none;"></path></g><g transform="translate(21.646899059314705 202.64848239942637) rotate(0 41.5 11.5)"><text x="0" y="18" font-family="Helvetica" font-size="20px" fill="#000000" text-anchor="start">riverpod</text></g><g><g transform="translate(518.4621438543685 315.20899835312326) rotate(0 -79.02476941316417 48.11644691609166)"><path d="M-0.7999630004167557 0.9860068827867507 C-18.976577038657606 0.9522873124514489, -83.65695677649693 -17.399548947982414, -110.07763743753397 -0.22162508008809723 C-136.498318098571 16.956298787806222, -151.33779847052125 86.50311375565228, -159.32404696663897 104.05355009015265 M1.2745081403106453 0.842440935149789 C-17.419975563552914 0.7520920909230383, -85.39713514615313 -17.689630622662527, -112.00949582132363 -0.5376689906957925 C-138.6218564964941 16.614292641270943, -150.66031695429413 86.3833835552573, -158.3996559107123 103.7542107269502" style="stroke: rgb(0, 0, 0); stroke-width: 1; fill: none;"></path></g><g transform="translate(518.4621438543685 315.20899835312326) rotate(0 -79.02476941316417 48.11644691609166)"><path d="M-158.15846990834464 75.68406112885384 C-158.28037858511195 78.71294836107649, -160.1924637913834 87.37587514109836, -157.67648522792442 103.92623958143953 M-160.23548650782098 74.01578780656962 C-159.16910618811752 82.29003786952651, -158.773187139564 91.25088040814119, -157.52303236214502 103.24952361885074" style="stroke: rgb(0, 0, 0); stroke-width: 1; fill: none;"></path></g><g transform="translate(518.4621438543685 315.20899835312326) rotate(0 -79.02476941316417 48.11644691609166)"><path d="M-138.56787282525448 81.79376720311465 C-142.90411833022458 83.37742758110234, -149.03152339899742 90.72572544707712, -157.67648522792442 103.92623958143953 M-140.64488942473082 80.12549388083043 C-145.5029755128439 86.65554044374025, -150.98897166922953 93.78199412205197, -157.52303236214502 103.24952361885074" style="stroke: rgb(0, 0, 0); stroke-width: 1; fill: none;"></path></g></g><g><g transform="translate(739.079959946322 312.4476836979507) rotate(0 95.64226760346992 54.986793611585256)"><path d="M0.76119165122509 -0.5178037136793137 C24.500529595387405 1.0460673356535608, 111.10514873740097 -8.236938444899064, 142.7321740548159 10.265610360790834 C174.35919937223085 28.768159166480732, 182.57805473058835 93.87912796490261, 190.52334355571475 110.49748912046007 M1.0324207022041083 1.4197160945087672 C24.926831867096254 3.193024993363278, 111.34937552531085 -8.56565924778734, 142.91083510166362 9.773002746169313 C174.4722946780164 28.111664740125967, 182.23617851070478 94.7221179655231, 190.40117816032077 111.45168805824868" style="stroke: rgb(0, 0, 0); stroke-width: 1; fill: none;"></path></g><g transform="translate(739.079959946322 312.4476836979507) rotate(0 95.64226760346992 54.986793611585256)"><path d="M171.49813442432313 89.30999677448138 C176.80335513858185 95.43691213903274, 184.4464040894477 103.02037752955614, 189.72622843981887 110.95372971104733 M173.05818871908812 86.69085937558278 C177.08120283125842 93.98257471688004, 182.4581610991544 99.32704852584114, 191.01248736829663 111.95846626119963" style="stroke: rgb(0, 0, 0); stroke-width: 1; fill: none;"></path></g><g transform="translate(739.079959946322 312.4476836979507) rotate(0 95.64226760346992 54.986793611585256)"><path d="M191.12626877457248 83.32198004818537 C190.10268017765134 91.51758432524717, 191.3728887295123 101.04523219497656, 189.72622843981887 110.95372971104733 M192.68632306933748 80.70284264928677 C191.78444202416114 89.65959260689027, 192.20272288097615 96.51682574121648, 191.01248736829663 111.95846626119963" style="stroke: rgb(0, 0, 0); stroke-width: 1; fill: none;"></path></g></g><g><g transform="translate(214.8059328236826 99.28677262931029) rotate(0 -80.26312925858872 39.06868831010789)"><path d="M0.42028960883617406 0.5997081309556962 C-19.487379350755866 0.39583044916505516, -92.1108014081744 -15.630274465109196, -119.07024023529443 -1.4595731842449369 C-146.02967906241446 12.711128096619323, -154.22890284350325 70.92693800018435, -161.33634335388402 85.62391581614125 M0.810084836706519 0.16515266038477416 C-19.068199455012138 -0.011422105355909512, -91.36698198463297 -16.38288069690296, -118.17736016426537 -2.0656645401498737 C-144.98773834389775 12.25155161660321, -153.21431776015268 71.28349641406244, -160.05218424108782 86.06844960090328" style="stroke: rgb(0, 0, 0); stroke-width: 1; fill: none;"></path></g><g transform="translate(214.8059328236826 99.28677262931029) rotate(0 -80.26312925858872 39.06868831010789)"><path d="M-160.61436552897845 55.627774293059474 C-160.45260911265402 65.52202206003366, -162.56005731664456 74.81707949377156, -160.14356014338293 87.26226991352249 M-161.28378649399434 56.00837201111949 C-160.56331583641796 63.06096426295855, -159.71749319537605 70.71600197486703, -159.9782941138462 86.81878168073106" style="stroke: rgb(0, 0, 0); stroke-width: 1; fill: none;"></path></g><g transform="translate(214.8059328236826 99.28677262931029) rotate(0 -80.26312925858872 39.06868831010789)"><path d="M-140.99151592374028 61.63308658769023 C-147.319267515946 69.60641488504787, -155.92804954424932 76.91182551762893, -160.14356014338293 87.26226991352249 M-141.66093688875617 62.013684305750246 C-145.7749526466299 67.61259093321449, -149.73703274655963 73.79623391792502, -159.9782941138462 86.81878168073106" style="stroke: rgb(0, 0, 0); stroke-width: 1; fill: none;"></path></g></g><g transform="translate(178.53456069724587 46.57808010057482) rotate(0 13 11.5)"><text x="0" y="18" font-family="Helvetica" font-size="20px" fill="#000000" text-anchor="start">No</text></g></svg>