<svg xmlns="http://www.w3.org/2000/svg" xmlns:xlink="http://www.w3.org/1999/xlink" xmlns:lucid="lucid" width="800" height="400"><g transform="translate(0 -160)" lucid:page-tab-id="0_0"><path d="M274.86 183.1c2.84-1.72 7.44-1.72 10.28 0l89.72 53.8c2.84 1.72 2.84 4.48 0 6.2l-89.72 53.8c-2.84 1.72-7.44 1.72-10.28 0l-89.72-53.8c-2.84-1.72-2.84-4.48 0-6.2z" stroke="#fff" stroke-width="3"/><use xlink:href="#a" transform="matrix(1,0,0,1,185,185) translate(63.61611111111111 59.02777777777778)"/><path d="M20 346c0-3.3 2.7-6 6-6h108c3.3 0 6 2.7 6 6v48c0 3.3-2.7 6-6 6H26c-3.3 0-6-2.7-6-6z" stroke="#fff" stroke-width="3"/><use xlink:href="#b" transform="matrix(1,0,0,1,32,352) translate(7.969135802469133 22.27777777777778)"/><path d="M99.64 281.47L97 285.15l-2.43 3.78-2.23 3.88-2.05 4-1.85 4.07-1.66 4.18-1.46 4.3-1.26 4.4-1.05 4.53-.36 2-1.97-.36.37-2.05 1.08-4.62 1.28-4.5 1.5-4.38 1.67-4.28 1.9-4.18 2.08-4.07 2.3-3.97 2.47-3.86 2.7-3.76.96-1.2h2.57zm81.16-40.4l-5.17.33-6 .68-5.83.96-5.67 1.22-5.5 1.46-5.3 1.7-5.1 1.92-4.9 2.13-4.7 2.32-4.5 2.5-4.3 2.65-1.85 1.28v-2.44l.75-.52 4.37-2.72 4.6-2.55 4.78-2.35 5-2.16 5.2-1.97 5.4-1.73 5.58-1.5 5.76-1.23 5.93-.97 6.1-.7 5.22-.33z" fill="#fff"/><path d="M181.77 241l-1 .06-.12-2 1.05-.06zM86.2 321.5l-5.9 13.78-3.32-14.63z" fill="#fff"/><path d="M87.67 320.62L80 338.5l-4.3-18.97zm-7.08 11.43l4.15-9.7-6.5-.58z" fill="#fff"/><use xlink:href="#c" transform="matrix(1,0,0,1,98.37764272791898,257.71361291137987) translate(0 14.222222222222223)"/><path d="M200 486c0-3.3 2.7-6 6-6h188c3.3 0 6 2.7 6 6v48c0 3.3-2.7 6-6 6H206c-3.3 0-6-2.7-6-6z" stroke="#fff" stroke-width="3"/><use xlink:href="#d" transform="matrix(1,0,0,1,212,492) translate(12.166666666666657 22.27777777777778)"/><path d="M580 486c0-3.3 2.7-6 6-6h188c3.3 0 6 2.7 6 6v48c0 3.3-2.7 6-6 6H586c-3.3 0-6-2.7-6-6z" stroke="#fff" stroke-width="3"/><use xlink:href="#e" transform="matrix(1,0,0,1,592,492) translate(14.08024691358024 22.27777777777778)"/><path d="M495.08 323.44c2.72-1.9 7.12-1.9 9.84 0l90.16 63.12c2.72 1.9 2.72 4.98 0 6.88l-90.16 63.12c-2.72 1.9-7.12 1.9-9.84 0l-90.16-63.12c-2.72-1.9-2.72-4.98 0-6.88z" stroke="#fff" stroke-width="3"/><use xlink:href="#f" transform="matrix(1,0,0,1,405,325) translate(31.48648148148147 70.59027777777777)"/><path d="M318.33 422.45h1.97l-.26.3-2.3 2.8-2.16 2.9-2.02 3-1.87 3.15-1.76 3.26-1.6 3.4-1.48 3.56-1.33 3.73-1.2 3.93-1.02 4.14-.7 3.67-1.98-.4.74-3.7 1.05-4.25 1.23-4.02 1.37-3.83 1.5-3.65 1.66-3.5 1.8-3.34 1.9-3.2 2.08-3.1 2.22-3 2.17-2.62zm82.22-31.4l-7.82.35-7.96.75-7.23 1.05-6.6 1.3-6.02 1.47-5.52 1.66-5.07 1.8-4.67 1.92-4.32 2.03-3.4 1.8v-2.25l2.5-1.34 4.4-2.08 4.77-1.96 5.18-1.83 5.6-1.7 6.13-1.5 6.7-1.3 7.33-1.07 8.06-.76 7.86-.35z" fill="#fff"/><path d="M401.38 389.13l.26 1.86-1.12.05-.1-2 1.03-.05zM306.14 461.47l-5.86 13.8-3.38-14.6z" fill="#fff"/><path d="M307.6 460.6l-7.6 17.9-4.38-18.95zm-7.04 11.45l4.12-9.7-6.5-.57z" fill="#fff"/><use xlink:href="#c" transform="matrix(1,0,0,1,318.326519468797,401.1153234110005) translate(0 14.222222222222223)"/><path d="M670.96 424.12l1.65 3.4 1.57 3.77 1.48 4.22 1.38 4.82 1.27 5.6 1.12 6.68.8 7.3-1.98.2-.8-7.22-1.1-6.58-1.25-5.5-1.36-4.7-1.44-4.12-1.52-3.66-1.6-3.3-.83-1.5h2.3zm-62.9-34.68l7.92.83 6.7 1.08 5.75 1.26 5.02 1.42 4.43 1.5 3.95 1.62 3.55 1.68 3.24 1.76 2.58 1.6h-3.8l-2.93-1.58-3.45-1.63-3.84-1.57-4.32-1.47-4.9-1.38-5.66-1.24-6.6-1.05-7.8-.8-8.45-.4.1-2z" fill="#fff"/><path d="M599.57 389.05l-.1 2-.92-.05.07-.13-.27-1.88zM679.87 475.27l-5.23-14.06 9.27-.38z" fill="#fff"/><path d="M680 478.5l-6.77-18.24 12-.5zm-3.94-16.35l3.67 9.88 2.84-10.15z" fill="#fff"/><use xlink:href="#g" transform="matrix(1,0,0,1,646.7671050304182,402.1920029826481) translate(0 14.222222222222223)"/><path d="M475.52 262.15l2.02 1.72 1.9 1.77 1.8 1.8 1.7 1.9 1.63 1.94 1.55 2.03 1.5 2.13 1.42 2.23 1.37 2.34 1.32 2.5 1.27 2.65 1.2 2.85 1.16 3.07 1.1 3.34 1.04 3.68.95 3.95-1.95.46-.93-3.92-1.02-3.58-1.08-3.26-1.13-3-1.18-2.77-1.22-2.58-1.28-2.43-1.33-2.27-1.38-2.16-1.44-2.05-1.5-1.97-1.57-1.88-1.65-1.82-1.74-1.76-1.83-1.7-1.5-1.3h.12v-2.48zM397.4 239.7l13.68 1.06 10.5 1.27 8.42 1.38 6.96 1.45 5.9 1.48 1.34.4v2.08l-1.87-.54-5.8-1.46-6.9-1.43-8.33-1.36-10.42-1.25-13.6-1.07-18.05-.64.07-2z" fill="#fff"/><path d="M379.33 239.04l-.07 2-.96-.04-.07-2zM499.56 317.37l-6.54-13.5 9.18-1.27z" fill="#fff"/><path d="M500 320.57l-8.48-17.5 11.9-1.65zm-5.48-15.9l4.6 9.5 1.85-10.4z" fill="#fff"/><use xlink:href="#g" transform="matrix(1,0,0,1,444.2033623992361,242.7278998986932) translate(0 14.222222222222223)"/><defs><path fill="#fff" d="M63-220v92h138v28H63V0H30v-248h175v28H63" id="h"/><path fill="#fff" d="M24 0v-261h32V0H24" id="i"/><path fill="#fff" d="M84 4C-5 8 30-112 23-190h32v120c0 31 7 50 39 49 72-2 45-101 50-169h31l1 190h-30c-1-10 1-25-2-33-11 22-28 36-60 37" id="j"/><path fill="#fff" d="M59-47c-2 24 18 29 38 22v24C64 9 27 4 27-40v-127H5v-23h24l9-43h21v43h35v23H59v120" id="k"/><path fill="#fff" d="M100-194c63 0 86 42 84 106H49c0 40 14 67 53 68 26 1 43-12 49-29l28 8c-11 28-37 45-77 45C44 4 14-33 15-96c1-61 26-98 85-98zm52 81c6-60-76-77-97-28-3 7-6 17-6 28h103" id="l"/><path fill="#fff" d="M114-163C36-179 61-72 57 0H25l-1-190h30c1 12-1 29 2 39 6-27 23-49 58-41v29" id="m"/><g id="a"><use transform="matrix(0.06172839506172839,0,0,0.06172839506172839,0,0)" xlink:href="#h"/><use transform="matrix(0.06172839506172839,0,0,0.06172839506172839,13.518518518518517,0)" xlink:href="#i"/><use transform="matrix(0.06172839506172839,0,0,0.06172839506172839,18.39506172839506,0)" xlink:href="#j"/><use transform="matrix(0.06172839506172839,0,0,0.06172839506172839,30.74074074074074,0)" xlink:href="#k"/><use transform="matrix(0.06172839506172839,0,0,0.06172839506172839,36.91358024691358,0)" xlink:href="#k"/><use transform="matrix(0.06172839506172839,0,0,0.06172839506172839,43.086419753086425,0)" xlink:href="#l"/><use transform="matrix(0.06172839506172839,0,0,0.06172839506172839,55.4320987654321,0)" xlink:href="#m"/></g><path fill="#fff" d="M24-231v-30h32v30H24zM24 0v-190h32V0H24" id="n"/><path fill="#fff" d="M108 0H70L1-190h34L89-25l56-165h34" id="o"/><path fill="#fff" d="M115-194c55 1 70 41 70 98S169 2 115 4C84 4 66-9 55-30l1 105H24l-1-265h31l2 30c10-21 28-34 59-34zm-8 174c40 0 45-34 45-75s-6-73-45-74c-42 0-51 32-51 76 0 43 10 73 51 73" id="p"/><path fill="#fff" d="M100-194c62-1 85 37 85 99 1 63-27 99-86 99S16-35 15-95c0-66 28-99 85-99zM99-20c44 1 53-31 53-75 0-43-8-75-51-75s-53 32-53 75 10 74 51 75" id="q"/><path fill="#fff" d="M85-194c31 0 48 13 60 33l-1-100h32l1 261h-30c-2-10 0-23-3-31C134-8 116 4 85 4 32 4 16-35 15-94c0-66 23-100 70-100zm9 24c-40 0-46 34-46 75 0 40 6 74 45 74 42 0 51-32 51-76 0-42-9-74-50-73" id="r"/><g id="b"><use transform="matrix(0.06172839506172839,0,0,0.06172839506172839,0,0)" xlink:href="#m"/><use transform="matrix(0.06172839506172839,0,0,0.06172839506172839,7.345679012345679,0)" xlink:href="#n"/><use transform="matrix(0.06172839506172839,0,0,0.06172839506172839,12.222222222222221,0)" xlink:href="#o"/><use transform="matrix(0.06172839506172839,0,0,0.06172839506172839,23.333333333333332,0)" xlink:href="#l"/><use transform="matrix(0.06172839506172839,0,0,0.06172839506172839,35.67901234567901,0)" xlink:href="#m"/><use transform="matrix(0.06172839506172839,0,0,0.06172839506172839,43.02469135802469,0)" xlink:href="#p"/><use transform="matrix(0.06172839506172839,0,0,0.06172839506172839,55.37037037037037,0)" xlink:href="#q"/><use transform="matrix(0.06172839506172839,0,0,0.06172839506172839,67.71604938271605,0)" xlink:href="#r"/></g><path fill="#fff" d="M175 0L67-191c6 58 2 128 3 191H24v-248h59L193-55c-6-58-2-129-3-193h46V0h-61" id="s"/><path fill="#fff" d="M110-194c64 0 96 36 96 99 0 64-35 99-97 99-61 0-95-36-95-99 0-62 34-99 96-99zm-1 164c35 0 45-28 45-65 0-40-10-65-43-65-34 0-45 26-45 65 0 36 10 65 43 65" id="t"/><g id="c"><use transform="matrix(0.04938271604938272,0,0,0.04938271604938272,0,0)" xlink:href="#s"/><use transform="matrix(0.04938271604938272,0,0,0.04938271604938272,12.790123456790125,0)" xlink:href="#t"/></g><path fill="#fff" d="M106-169C34-169 62-67 57 0H25v-261h32l-1 103c12-21 28-36 61-36 89 0 53 116 60 194h-32v-121c2-32-8-49-39-48" id="u"/><path fill="#fff" d="M143 0L79-87 56-68V0H24v-261h32v163l83-92h37l-77 82L181 0h-38" id="v"/><path fill="#fff" d="M135-143c-3-34-86-38-87 0 15 53 115 12 119 90S17 21 10-45l28-5c4 36 97 45 98 0-10-56-113-15-118-90-4-57 82-63 122-42 12 7 21 19 24 35" id="w"/><path fill="#fff" d="M-5 72V49h209v23H-5" id="x"/><g id="d"><use transform="matrix(0.06172839506172839,0,0,0.06172839506172839,0,0)" xlink:href="#u"/><use transform="matrix(0.06172839506172839,0,0,0.06172839506172839,12.345679012345679,0)" xlink:href="#q"/><use transform="matrix(0.06172839506172839,0,0,0.06172839506172839,24.691358024691358,0)" xlink:href="#q"/><use transform="matrix(0.06172839506172839,0,0,0.06172839506172839,37.03703703703704,0)" xlink:href="#v"/><use transform="matrix(0.06172839506172839,0,0,0.06172839506172839,48.14814814814815,0)" xlink:href="#w"/><use transform="matrix(0.06172839506172839,0,0,0.06172839506172839,59.25925925925927,0)" xlink:href="#x"/><use transform="matrix(0.06172839506172839,0,0,0.06172839506172839,71.60493827160495,0)" xlink:href="#m"/><use transform="matrix(0.06172839506172839,0,0,0.06172839506172839,78.95061728395063,0)" xlink:href="#n"/><use transform="matrix(0.06172839506172839,0,0,0.06172839506172839,83.82716049382718,0)" xlink:href="#o"/><use transform="matrix(0.06172839506172839,0,0,0.06172839506172839,94.9382716049383,0)" xlink:href="#l"/><use transform="matrix(0.06172839506172839,0,0,0.06172839506172839,107.28395061728398,0)" xlink:href="#m"/><use transform="matrix(0.06172839506172839,0,0,0.06172839506172839,114.62962962962966,0)" xlink:href="#p"/><use transform="matrix(0.06172839506172839,0,0,0.06172839506172839,126.97530864197536,0)" xlink:href="#q"/><use transform="matrix(0.06172839506172839,0,0,0.06172839506172839,139.32098765432102,0)" xlink:href="#r"/></g><path fill="#fff" d="M101-234c-31-9-42 10-38 44h38v23H63V0H32v-167H5v-23h27c-7-52 17-82 69-68v24" id="y"/><g id="e"><use transform="matrix(0.06172839506172839,0,0,0.06172839506172839,0,0)" xlink:href="#y"/><use transform="matrix(0.06172839506172839,0,0,0.06172839506172839,6.172839506172839,0)" xlink:href="#i"/><use transform="matrix(0.06172839506172839,0,0,0.06172839506172839,11.049382716049383,0)" xlink:href="#j"/><use transform="matrix(0.06172839506172839,0,0,0.06172839506172839,23.395061728395063,0)" xlink:href="#k"/><use transform="matrix(0.06172839506172839,0,0,0.06172839506172839,29.567901234567902,0)" xlink:href="#k"/><use transform="matrix(0.06172839506172839,0,0,0.06172839506172839,35.74074074074074,0)" xlink:href="#l"/><use transform="matrix(0.06172839506172839,0,0,0.06172839506172839,48.08641975308642,0)" xlink:href="#m"/><use transform="matrix(0.06172839506172839,0,0,0.06172839506172839,55.432098765432094,0)" xlink:href="#x"/><use transform="matrix(0.06172839506172839,0,0,0.06172839506172839,67.77777777777777,0)" xlink:href="#m"/><use transform="matrix(0.06172839506172839,0,0,0.06172839506172839,75.12345679012346,0)" xlink:href="#n"/><use transform="matrix(0.06172839506172839,0,0,0.06172839506172839,80,0)" xlink:href="#o"/><use transform="matrix(0.06172839506172839,0,0,0.06172839506172839,91.11111111111111,0)" xlink:href="#l"/><use transform="matrix(0.06172839506172839,0,0,0.06172839506172839,103.4567901234568,0)" xlink:href="#m"/><use transform="matrix(0.06172839506172839,0,0,0.06172839506172839,110.80246913580248,0)" xlink:href="#p"/><use transform="matrix(0.06172839506172839,0,0,0.06172839506172839,123.14814814814817,0)" xlink:href="#q"/><use transform="matrix(0.06172839506172839,0,0,0.06172839506172839,135.49382716049385,0)" xlink:href="#r"/></g><g id="f"><use transform="matrix(0.06172839506172839,0,0,0.06172839506172839,0,0)" xlink:href="#y"/><use transform="matrix(0.06172839506172839,0,0,0.06172839506172839,6.172839506172839,0)" xlink:href="#i"/><use transform="matrix(0.06172839506172839,0,0,0.06172839506172839,11.049382716049383,0)" xlink:href="#j"/><use transform="matrix(0.06172839506172839,0,0,0.06172839506172839,23.395061728395063,0)" xlink:href="#k"/><use transform="matrix(0.06172839506172839,0,0,0.06172839506172839,29.567901234567902,0)" xlink:href="#k"/><use transform="matrix(0.06172839506172839,0,0,0.06172839506172839,35.74074074074074,0)" xlink:href="#l"/><use transform="matrix(0.06172839506172839,0,0,0.06172839506172839,48.08641975308642,0)" xlink:href="#m"/><use transform="matrix(0.06172839506172839,0,0,0.06172839506172839,55.432098765432094,0)" xlink:href="#x"/><use transform="matrix(0.06172839506172839,0,0,0.06172839506172839,67.77777777777777,0)" xlink:href="#u"/><use transform="matrix(0.06172839506172839,0,0,0.06172839506172839,80.12345679012346,0)" xlink:href="#q"/><use transform="matrix(0.06172839506172839,0,0,0.06172839506172839,92.46913580246914,0)" xlink:href="#q"/><use transform="matrix(0.06172839506172839,0,0,0.06172839506172839,104.81481481481482,0)" xlink:href="#v"/><use transform="matrix(0.06172839506172839,0,0,0.06172839506172839,115.92592592592594,0)" xlink:href="#w"/></g><path fill="#fff" d="M146-102V0H94v-102L6-248h54l60 105 60-105h54" id="z"/><path fill="#fff" d="M185-48c-13 30-37 53-82 52C43 2 14-33 14-96s30-98 90-98c62 0 83 45 84 108H66c0 31 8 55 39 56 18 0 30-7 34-22zm-45-69c5-46-57-63-70-21-2 6-4 13-4 21h74" id="A"/><path fill="#fff" d="M137-138c1-29-70-34-71-4 15 46 118 7 119 86 1 83-164 76-172 9l43-7c4 19 20 25 44 25 33 8 57-30 24-41C81-84 22-81 20-136c-2-80 154-74 161-7" id="B"/><g id="g"><use transform="matrix(0.04938271604938272,0,0,0.04938271604938272,0,0)" xlink:href="#z"/><use transform="matrix(0.04938271604938272,0,0,0.04938271604938272,10.864197530864198,0)" xlink:href="#A"/><use transform="matrix(0.04938271604938272,0,0,0.04938271604938272,20.74074074074074,0)" xlink:href="#B"/></g></defs></g></svg>