<svg version="1.1" xmlns="http://www.w3.org/2000/svg" viewBox="0 0 1693.821033715972 949.8940732774687">
  <!-- svg-source:excalidraw -->
  <defs>
    <style>
      @font-face {
        font-family: "Virgil";
        src: url("https://excalidraw.com/FG_Virgil.woff2");
      }
      @font-face {
        font-family: "Cascadia";
        src: url("https://excalidraw.com/Cascadia.woff2");
      }
    </style>
  </defs>
  <rect x="0" y="0" width="1693.821033715972" height="949.8940732774687" fill="#ffffff"></rect><g transform="translate(250.00301846590924 45.051846590909065) rotate(0 182 20.5)"><text x="182" y="33" font-family="Helvetica, Segoe UI Emoji" font-size="36px" fill="#000000" text-anchor="middle" style="white-space: pre;" direction="ltr">How to read a provider</text></g><g transform="translate(284.88884943181824 222.7144886363635) rotate(0 138.201171875 80.845703125)"><path d="M139.73547640629113 -1.8183919209986925 C189.28721343763152 30.447323558088648, 238.1823231018237 58.554236401878555, 278.0439049918204 80.80270391516387 M139.79928693082184 0.37943770084530115 C182.25007592388334 26.95685176413772, 225.21432971126208 52.26312926283372, 275.9116699090227 81.68302218709141 M276.2617695052176 79.34063011221588 C233.57358442501186 108.49400382618823, 187.9744928783346 134.049733475235, 137.387430222705 161.33568644337356 M275.47270911838854 80.6066974857822 C228.31306753241716 109.7358375677688, 178.6971835479106 138.65120522021007, 138.5876546194777 161.36754305753857 M137.3188414890319 162.48892330937088 C86.38824715810941 129.84610373673414, 30.63786648214908 101.20633365792992, 0.9143832642585039 79.19454902224243 M139.4189956476912 161.0303159514442 C90.13776815775492 133.55310972184373, 40.315618416570956 105.47840126695039, -0.6672621974721551 81.58646582160145 M1.4377592522650957 79.07686608843505 C31.9162779223267 60.52225936275907, 65.01806941936724 44.78613087019884, 139.5015341360122 1.5542794447392225 M0.38970291521400213 80.34942029509693 C32.584616632713 60.682170554092146, 65.11277274289168 42.758375527458256, 139.9834367921576 -0.5226057609543204" stroke="#000000" stroke-width="1" fill="none"></path></g><g transform="translate(357.59002130681824 269.0601917613635) rotate(0 65.5 34.5)"><text x="65.5" y="18" font-family="Helvetica, Segoe UI Emoji" font-size="20px" fill="#000000" text-anchor="middle" style="white-space: pre;" direction="ltr">Where are you</text><text x="65.5" y="41" font-family="Helvetica, Segoe UI Emoji" font-size="20px" fill="#000000" text-anchor="middle" style="white-space: pre;" direction="ltr">trying to read</text><text x="65.5" y="64" font-family="Helvetica, Segoe UI Emoji" font-size="20px" fill="#000000" text-anchor="middle" style="white-space: pre;" direction="ltr">the provider?</text></g><g transform="translate(73.95254361347736 239.85838304400755) rotate(0 81 23)"><text x="81" y="18" font-family="Helvetica, Segoe UI Emoji" font-size="20px" fill="#000000" text-anchor="middle" style="white-space: pre;" direction="ltr">Inside tests or a</text><text x="81" y="41" font-family="Helvetica, Segoe UI Emoji" font-size="20px" fill="#000000" text-anchor="middle" style="white-space: pre;" direction="ltr">Dart-only package</text></g><g transform="translate(444.9413437599462 418.3310009820426) rotate(0 102.5 11.5)"><text x="102.5" y="18" font-family="Helvetica, Segoe UI Emoji" font-size="20px" fill="#000000" text-anchor="middle" style="white-space: pre;" direction="ltr">Inside another provider</text></g><g transform="translate(566.2517369718278 244.12442327443478) rotate(0 63.5 11.5)"><text x="63.5" y="18" font-family="Helvetica, Segoe UI Emoji" font-size="20px" fill="#000000" text-anchor="middle" style="white-space: pre;" direction="ltr">Inside widgets</text></g><g><g transform="translate(423.9154747910136 386.4745461076279) rotate(0 -1.0327425667468901 39.36833511620503)"><path d="M-0.016377569362521216 -0.9616506982594728 C-0.26408343869921214 12.289333902646243, -1.1475010985372782 66.2794892686066, -1.6046128669218207 79.69832093066954 M-1.4841145226173103 1.1478787398152055 C-1.7955585085759722 14.016235881552488, -1.6919142762622057 64.50098730862334, -2.049107564131268 77.81479193342336" stroke="#000000" stroke-width="1" fill="none"></path></g></g><g transform="translate(232.074084121498 468.5486360436072) rotate(0 190.61584742484473 89.71665008841711)"><path d="M191.669753313584 -0.28726013790311306 C247.6268976844595 24.436693866353334, 303.9204586538039 51.54630756252089, 382.43731140291226 90.28946758539259 M190.2677529945436 0.24541653540462838 C251.06413159064743 27.41945627541243, 310.2452462538223 55.39399435214469, 381.0747227573903 90.46299746708533 M380.53715153144327 91.57933195077098 C338.00710638684984 108.6039927875034, 294.8528783272961 129.0747869432601, 190.42808141769103 180.84575296217503 M381.58378396986404 90.41762964086124 C306.16341011778576 122.74265623991323, 232.5408668974196 159.05506000949137, 190.20292658469486 179.90826934961902 M189.8340960144928 180.3330900616282 C128.35071976253778 150.90723515324186, 67.26371354094042 120.97407140862605, 1.0342956783099628 88.75079168797598 M190.15208652393784 179.61096375201154 C124.6958794890348 150.7772650418175, 60.602308921106044 119.67619629693252, 0.6852848253756664 89.39291197860189 M-1.146844888675068 89.76566090944196 C41.44361654211275 69.33487252965384, 86.30773458047294 50.12570178727142, 190.07874816686464 -1.2386999133767809 M0.32284498677828066 90.85779868784215 C68.63339577129692 58.49709486140963, 136.42026271315586 25.650078697023435, 191.45878636692635 -0.03732137900257716" stroke="#000000" stroke-width="1" fill="none"></path></g><g transform="translate(287.9609652001892 509.1779809264543) rotate(0 138.5 46)"><text x="138.5" y="18" font-family="Helvetica, Segoe UI Emoji" font-size="20px" fill="#000000" text-anchor="middle" style="white-space: pre;" direction="ltr">Should the value</text><text x="138.5" y="41" font-family="Helvetica, Segoe UI Emoji" font-size="20px" fill="#000000" text-anchor="middle" style="white-space: pre;" direction="ltr">exposed by this provider</text><text x="138.5" y="64" font-family="Helvetica, Segoe UI Emoji" font-size="20px" fill="#000000" text-anchor="middle" style="white-space: pre;" direction="ltr">be recreated when the provider</text><text x="138.5" y="87" font-family="Helvetica, Segoe UI Emoji" font-size="20px" fill="#000000" text-anchor="middle" style="white-space: pre;" direction="ltr">obtained updates?</text></g><g transform="translate(101.05058801152575 715.2521279838994) rotate(0 126.2745392628205 31.079727564102598)"><path d="M-0.05777595709025841 -0.7972323288638302 C72.76443103224054 1.5433333631737933, 143.48876289587167 1.516265164778303, 252.43487809025314 -1.3480475313804037 M0.7254127006017406 -0.6550139072259601 C82.64295055227775 2.0356558186068696, 165.01643782872816 1.4870380275310948, 251.79385711331145 -0.3195131400660795 M254.5034439895684 -0.8246907610446215 C252.21362008582125 25.80665497200228, 254.6954840017415 48.0667219422318, 250.86792001467293 62.956972187576085 M253.0886251932392 0.45719163212925196 C251.3534100625833 22.125820845715918, 252.49811205008825 43.62335421121909, 252.9680741733322 61.49836482964942 M252.97302921461764 61.07530726616708 C164.85221335390543 60.73207422390974, 75.93351718356162 62.9918382463335, 1.1680143318277716 60.5971296086907 M253.30456681393025 62.36317458187599 C172.32739798996445 63.293270666860586, 90.25414801110462 64.24463723973679, 0.3165888791241742 61.63093380718021 M-0.2477270644158125 64.12632871252039 C-0.4711500672914173 42.9325635911019, 1.7631972165487622 27.288784355303534, -1.2078321855515242 0.732571242377162 M-0.6647211322560906 61.40567999445388 C0.32058999123845 37.41979046529708, -0.14773559388842683 12.178149326338051, -0.8020892450585961 0.3500517765060067" stroke="#000000" stroke-width="1" fill="none"></path></g><g transform="translate(115.23828833203845 736.1664909646685) rotate(0 112.5 11.5)"><text x="112.5" y="18" font-family="Helvetica, Segoe UI Emoji" font-size="20px" fill="#000000" text-anchor="middle" style="white-space: pre;" direction="ltr">ProviderReference.watch</text></g><g transform="translate(526.982837185962 715.2266326459043) rotate(0 129.13912259615375 33.110476762820554)"><path d="M0.17730037538008084 0.23656903438159285 C64.69757765754578 -1.6722495009908327, 130.0673659442211 1.0736328701741091, 257.0186454334177 1.433771328966186 M-0.5518804086316259 -0.12099550672882557 C55.91254495857788 -1.403556680863251, 114.03578301396874 -0.6844819440091627, 258.04331999314195 0.7845173007985314 M260.11238272330496 -0.3472412247210741 C256.38262138717295 17.93321268905514, 259.00975278966547 33.32883803532647, 256.2915674581263 67.3000468608375 M258.52022169093374 0.4475651839748025 C258.0994474135442 22.232762341490865, 258.1906501792474 45.57531824076718, 258.14346988062147 66.48188312597678 M258.95411957406054 67.31681648379354 C199.18298720881057 63.208244250194376, 138.10266655275032 63.97625710297816, 1.325056812495633 67.71416896868519 M257.69627167646064 66.60841548316137 C174.63087126679997 64.27108531222339, 90.25103713995163 64.05195072972832, 0.2126194545892385 66.12151144507975 M1.1891357619315386 66.99331772294 C-0.8617576674676405 40.57482649943861, 2.2925153060698045 14.106833856869827, -0.3822860401123762 -1.3294422645121813 M0.0521931042894721 65.63429068274901 C-1.1467816844692729 51.69629005454789, -0.9953887179604075 36.71146115638826, 0.05327752139419317 -0.24076478090137243" stroke="#000000" stroke-width="1" fill="none"></path></g><g transform="translate(545.7950367051934 737.8837840882119) rotate(0 105.99999999999994 11.5)"><text x="106" y="18" font-family="Helvetica, Segoe UI Emoji" font-size="20px" fill="#000000" text-anchor="middle" style="white-space: pre;" direction="ltr">ProviderReference.read</text></g><g transform="translate(724.8572443181818 292.3748361013985) rotate(0 155.2433894230769 82.40434695512818)"><path d="M156.55614677257836 1.7608591299504042 C202.99486314810505 29.19050422382744, 251.57337115858067 53.17176788940297, 311.5359931813123 81.62517243437469 M156.89433619286865 0.5023659626021981 C198.9535451241488 25.233888875054, 242.85158007060147 47.58194870838317, 311.28661554041673 83.9170687654987 M311.43275173767825 82.05744677595794 C264.148609462422 107.81736316284716, 223.3858457215032 128.05505946965866, 157.07585266418755 165.2926469075087 M310.9969772595482 82.78761296067387 C257.43445438794316 110.44371297997752, 203.64164348871566 138.97332968838845, 155.29167452361435 165.22962329839947 M156.4029548484832 163.84218504303726 C99.61544155059444 135.0425646491688, 41.0195823355584 104.61090672084742, -1.376922992989421 81.55020540766418 M155.86706462409347 163.8851635262895 C101.61720448102074 135.1790938500344, 48.006985548168586 106.28951943292275, -0.702687026001513 83.59456788096577 M1.946440787985921 83.64327686838806 C52.94340505582281 52.993840747643254, 104.64258156736382 27.259008972197762, 155.9153136331588 0.1043862085789442 M-0.6506962785497308 83.23993812594563 C38.36707124567591 62.182456043753774, 76.00511448501611 42.64955605279654, 155.27045687939972 0.22402550373226404" stroke="#000000" stroke-width="1" fill="none"></path></g><g transform="translate(781.8049606643351 346.71447953088557) rotate(0 101 34.5)"><text x="101" y="18" font-family="Helvetica, Segoe UI Emoji" font-size="20px" fill="#000000" text-anchor="middle" style="white-space: pre;" direction="ltr">Are you listening</text><text x="101" y="41" font-family="Helvetica, Segoe UI Emoji" font-size="20px" fill="#000000" text-anchor="middle" style="white-space: pre;" direction="ltr">to the provider to show</text><text x="101" y="64" font-family="Helvetica, Segoe UI Emoji" font-size="20px" fill="#000000" text-anchor="middle" style="white-space: pre;" direction="ltr">dialogs?</text></g><g transform="translate(784.7887317129387 533.5778504766375) rotate(0 92.99872333046301 23.010996699196312)"><path d="M-1.6125697772949934 -0.3557198066264391 C73.22421343845403 -3.035676517157697, 144.0485779072548 -3.520118214755201, 185.21084163249046 1.7886723857373 M-0.41234538052231073 -0.323863192461431 C65.94294932587745 -0.9004661651652541, 130.11260465086852 -2.6581141861479964, 186.39620519061148 0.47298644576221704 M186.91182992518455 -1.8054509777575731 C186.61614497727746 12.121642104045279, 186.4354226810395 24.113369508968248, 184.67526606381446 47.04239022518144 M185.3301844634539 0.5864658216014504 C185.22709489949355 13.250079915483783, 186.61791543253074 26.37718068081387, 185.03587970514357 46.22347082263426 M186.49898079693824 47.57627284313188 C137.80969874355355 46.30190650273669, 93.34103016978312 48.53110692550052, -1.3011594098061323 45.756122646579605 M186.98088345308364 45.49938763743834 C146.67295496980884 46.38617827210769, 109.1400194293441 45.18769429836616, 0.366285621188581 46.99521379238562 M-1.5075502675026655 47.06303077722536 C0.003281461230550231 30.83953739793911, -1.0853578577124734 13.844130490210485, 0.7001035530120134 -1.3013925570994616 M0.043261109851300716 46.27902703052954 C-0.7540624979791459 31.335177797777888, -0.08942871726129625 16.961565724755236, 0.5176617195829749 0.04886598978191614" stroke="#000000" stroke-width="1" fill="none"></path></g><g transform="translate(803.6622218344462 544.7302884071765) rotate(0 73 11.5)"><text x="73" y="18" font-family="Helvetica, Segoe UI Emoji" font-size="20px" fill="#000000" text-anchor="middle" style="white-space: pre;" direction="ltr">ProviderListener</text></g><g transform="translate(1044.5178056939947 485.9446971327801) rotate(0 153.88371394230785 81.33513621794879)"><path d="M153.6985797006637 -1.8592692632228136 C197.03889522873604 25.987239671324257, 242.2255545621327 46.754877619829834, 309.721793348543 81.17530923895538 M153.82637938763946 -0.8405792554840446 C196.20489197523625 21.007155214937942, 236.48512418978504 41.48515172390135, 308.3069745522138 82.45719163212925 M308.6625582525652 82.83799129538238 C274.6299432108011 100.31124848331271, 243.2780990149531 115.94007165165294, 154.52185920067132 161.33574804095323 M308.4499229412671 82.71887962613255 C251.08629037892598 111.78084720866215, 196.41644044272496 141.33672250912514, 154.92996314074844 162.92103950390364 M154.96523335762322 163.44967826632555 C95.0862726305404 130.81777080478523, 36.3724195479208 101.14302358449484, -0.2477270644158125 83.96687358431518 M154.38618209864944 162.06635634312178 C116.78127387813223 144.573920547084, 78.58475540983422 123.42435031354103, -0.6647211322560906 81.24622486624867 M-1.1733256857842207 80.39582150988281 C54.950812780428684 51.74997680908069, 108.9465732963197 24.289671155754476, 153.51847043819726 0.08652221970260143 M-0.06490933988243341 82.76125453505665 C51.27420501338318 54.9961909305118, 101.72505399158226 29.054505851287395, 153.94747993256897 0.8038250366225839" stroke="#000000" stroke-width="1" fill="none"></path></g><g transform="translate(1075.099035661943 528.973743607137) rotate(0 128 34.5)"><text x="128" y="18" font-family="Helvetica, Segoe UI Emoji" font-size="20px" fill="#000000" text-anchor="middle" style="white-space: pre;" direction="ltr">Are you inside the</text><text x="128" y="41" font-family="Helvetica, Segoe UI Emoji" font-size="20px" fill="#000000" text-anchor="middle" style="white-space: pre;" direction="ltr">build method of your widget?</text><text x="128" y="64" font-family="Helvetica, Segoe UI Emoji" font-size="20px" fill="#000000" text-anchor="middle" style="white-space: pre;" direction="ltr">(excluding onPressed)</text></g><g transform="translate(1042.9136104101115 732.5247108690429) rotate(0 155.0856370192306 76.33964342948696)"><path d="M157.0047319252044 -0.5852384585887194 C189.57060918493744 13.738313072814881, 218.88760399304493 32.10449055897752, 312.0054115694586 76.65275877527893 M155.52872338797897 -0.9933388670906425 C190.1386554721667 16.355522135441262, 221.98844805240046 33.063796568178645, 310.4132505370874 77.4475651839748 M309.74649995980894 76.7304493766278 C257.4817333220412 102.32677023823032, 205.42171427092234 128.11935891952385, 156.84185877628624 154.044276972277 M309.68801960485166 77.82523523364216 C253.0390891687488 105.70560318186713, 195.55182475471685 132.91059041937422, 155.2751027038321 153.16190353778555 M154.15293923206627 153.2089579300712 C103.3652615393656 128.78575132815686, 49.68841160453434 99.76047376312059, 1.1891357619315386 77.77236419729888 M156.32163843419403 152.48814383891775 C117.67916756906331 135.31034340455219, 81.48549843803764 117.88838321958352, 0.0521931042894721 76.41333715710789 M0.4798762518912554 77.10655504278839 C33.53633834737353 61.17769560119136, 68.81934295053594 42.708174327239384, 156.44805100746453 -0.12981867976486683 M0.8101927628740668 77.81485669407994 C58.22445115537383 48.76593417262659, 116.39088477843441 19.24617018464953, 155.1968744089827 0.3245960036292672" stroke="#000000" stroke-width="1" fill="none"></path></g><g transform="translate(1072.807140057548 795.8794784972475) rotate(0 127 11.5)"><text x="127" y="18" font-family="Helvetica, Segoe UI Emoji" font-size="20px" fill="#000000" text-anchor="middle" style="white-space: pre;" direction="ltr">Are you using flutter_hooks?</text></g><g transform="translate(911.2304888441774 892.0436554661134) rotate(0 75.88241185897448 23.925208905677664)"><path d="M-0.647726384922862 1.5996733885258436 C42.92265407134803 0.2785540151377166, 80.49587456973318 1.423312299229666, 152.7107966094734 -0.942553224042058 M-0.9027254888787866 0.5379263320937753 C30.69603380839101 -0.2462908905793706, 61.32711026722087 -1.3549463731099645, 152.27502213134335 -0.21238703932613134 M152.93775536115186 -1.416650952771306 C152.73153839818931 15.075209959226118, 153.32743887416817 25.49730578028116, 152.16777856643216 46.88390894413624 M152.54196344031857 -0.6884614964947104 C151.48491767012078 18.786527094461093, 152.5995178815027 35.9572411263959, 151.63188834204243 46.926887427388465 M150.71961219604032 46.4450437593523 C103.4052405278172 50.11529312264963, 51.459553628270854 50.07550016772791, 1.946440787985921 48.493694679743385 M152.2853424073653 47.80807462793473 C109.18844838122811 46.11978946549577, 65.70559759086973 47.05650408489389, -0.6506962785497308 48.090355937300956 M0.5140672642737627 46.39133157015476 C0.563257961068429 33.11053862231731, 1.6377160237172022 19.66562023197497, 0.09773197956383228 1.6203855257481337 M-0.5616571912541986 48.096138779937064 C-0.7779945193167512 29.92076514476753, 0.5988222600583251 11.989273688858248, 0.38718303944915533 -0.2875027498230338" stroke="#000000" stroke-width="1" fill="none"></path></g><g transform="translate(929.0788605245796 902.8114983003621) rotate(0 53.5 11.5)"><text x="53.5" y="18" font-family="Helvetica, Segoe UI Emoji" font-size="20px" fill="#000000" text-anchor="middle" style="white-space: pre;" direction="ltr">useProvider</text></g><g transform="translate(1370.9373054650566 891.1148837170286) rotate(0 74.87093635531141 22.357772435897573)"><path d="M-1.681158510968089 0.7975170593708754 C57.845439150871655 -0.6825704676817388, 111.81225478451316 1.339076091556695, 150.6562559748813 -1.8054509777575731 M0.41899564769119024 -0.6610902985557914 C53.48776986138906 -0.8825795274107449, 105.82036758430324 -0.4092628877489559, 149.07461051315065 0.5864658216014504 M151.1796319628879 -1.9231339115649462 C150.3330484285397 9.280838632003615, 151.58056404734083 22.354621279942293, 150.243406846635 46.26982431653435 M150.1315756258368 -0.6505797049030662 C149.28479555897388 9.412639983670429, 149.68256647042904 20.54847720306668, 150.7253095027804 44.192939110840804 M148.53404052507128 45.44811611417229 C117.28791880571436 45.93709804677404, 80.55879728472168 43.9643789138738, -1.5075502675026655 45.75658225062782 M148.9397834655642 45.06559664830113 C104.80266937707921 44.077003070296726, 61.21813612202928 43.596300163449726, 0.043261109851300716 44.972578503932006 M1.5225090701133013 45.750868310961074 C-0.002442245081833272 36.18345875051586, 1.5295391635142055 24.305561442878265, 1.6076500732451677 -1.123314382508397 M0.5736911883577704 45.36289808973218 C0.7463050234773685 29.914623960777796, 0.313885276363187 16.067592850927415, -0.8758812854066491 0.3344721356406808" stroke="#000000" stroke-width="1" fill="none"></path></g><g transform="translate(1397.0933980703674 899.2606025814972) rotate(0 46 11.5)"><text x="46" y="18" font-family="Helvetica, Segoe UI Emoji" font-size="20px" fill="#000000" text-anchor="middle" style="white-space: pre;" direction="ltr">Consumer</text></g><g transform="translate(1493.6773752910638 544.6095036803973) rotate(0 95.07182921245408 24.68005952380952)"><path d="M-1.986677734181285 1.0790933351963758 C65.53962135798359 -0.9093483863598282, 130.32632885163773 1.38005558865009, 191.03878879285776 0.8379912953823805 M-0.13477531168609858 0.2609296003356576 C43.805622538338994 0.9903063081965049, 88.23744399523665 0.8247698747381766, 190.8261534815597 0.7188796261325479 M191.79412889219248 1.8599262814968824 C190.74464205738008 11.616009218056984, 188.86618492837846 18.673664954299703, 191.10889178253137 50.13952487804705 M190.40849396045678 -0.12386353220790625 C191.0614781572619 11.074160784933373, 189.37535433910278 23.788100972741155, 190.5298405235576 48.75620295484328 M189.76137238479578 48.03067678310686 C124.62832182580935 51.01273151212886, 62.04339939487468 50.076080341875105, -1.1733256857842207 47.75594055750185 M190.19693594630235 49.11935426671767 C126.48780946498798 50.073379810385106, 62.0158951647649 50.04037168198049, -0.06490933988243341 50.121373582675695 M1.629713388159871 49.25507891275698 C1.5835297625150164 30.87358454032385, 0.467321626433321 13.02742761601084, 0.6491920072585344 1.1473823767155409 M-0.04523670766502619 49.73900334913993 C-1.066995294610942 31.69121227865079, -0.8866544979018813 12.918431317109409, -0.5022306749597192 0.823089019395411" stroke="#000000" stroke-width="1" fill="none"></path></g><g transform="translate(1532.8144946820873 559.9547417756359) rotate(0 55 11.5)"><text x="55" y="18" font-family="Helvetica, Segoe UI Emoji" font-size="20px" fill="#000000" text-anchor="middle" style="white-space: pre;" direction="ltr">context.read</text></g><g><g transform="translate(612.8232323232323 560.2122619543376) rotate(0 23.954845264588016 76.92116368391936)"><path d="M-1.0832705866545438 0.6455115985125304 C1.9927372650729547 0.7275884014637803, 13.449323025582949 -1.3740625463710723, 19.103503111482816 1.0410907762626023 C24.757683197382683 3.456244098896277, 28.51430717037016 4.607514068570055, 32.84180992874467 15.136431534314578 C37.169312687119174 25.665349000059102, 42.389658954615435 41.857318073032616, 45.06851966172985 64.21459557072974 C47.74738036884427 86.57187306842687, 48.4770656202038 135.12386049304018, 48.91497417143118 149.28009652049735 C49.35288272265856 163.43633254795452, 47.907350825266356 149.20646648633516, 47.69597096909415 149.1520117354727 M0.5488736260123552 -0.06119875760748972 C3.4356153211856313 -0.3857649835115635, 13.00936863142497 -3.4826229460263254, 18.3079028419901 -0.7995179066119881 C23.60643705255523 1.8835871328023495, 27.78525541166732 5.040069723568928, 32.34007888940313 16.037431478878535 C36.89490236713894 27.034793234188143, 43.133681405006634 42.88502090680059, 45.63684370840497 65.18465262524566 C48.1400060118033 87.48428434369073, 46.85055443438266 135.95240972051258, 47.359052709793126 149.835221789549 C47.86755098520359 163.71803385858541, 48.607110145231154 148.80860050701756, 48.687833360867764 148.48152503946412" stroke="#000000" stroke-width="1" fill="none"></path></g></g><g><g transform="translate(234.47332702020208 557.5763402734785) rotate(0 -15.582361912542808 77.37741905761112)"><path d="M0.29037179835140714 0.5370782207697631 C-1.7107774507655824 0.2972748946398498, -10.166774479461646 -0.9860236393139755, -13.090166081356482 -0.7933083582669496 C-16.013557683251317 -0.6005930772199236, -14.225976567270095 -4.487727049617055, -17.24997781301761 1.693369907051919 C-20.27397905876512 7.874466863720894, -29.80247457339889 11.802555393898913, -31.23417355584156 36.2932733817469 C-32.66587253828423 60.78399136959489, -26.73095935991892 130.3417658774182, -25.84017170767363 148.63767783413985 C-24.94938405542834 166.9335897908615, -26.159399093194565 146.4373105264894, -25.889447642369827 146.0687451220768 M-1.0163217368535697 -0.2265596586652101 C-3.0367115554428725 -0.38789198281243453, -10.994589391419478 -0.18963875573510902, -13.774244286938238 0.32763000486418603 C-16.553899182457 0.8448987654634811, -14.811261331794645 -3.328595414133702, -17.69425110996613 2.87705290493056 C-20.577240888137617 9.082701223994823, -30.009298156402025 13.141380249640026, -31.072182955967154 37.561519919249754 C-32.13506775553228 61.981659588859486, -25.096347880632816 131.44248249696565, -24.07155990735691 149.39789092258894 C-23.046771934081004 167.35329934821223, -24.467456917921716 145.93805312233712, -24.92345511631172 145.29397047298946" stroke="#000000" stroke-width="1" fill="none"></path></g></g><g><g transform="translate(560.0668461668929 302.20204042782234) rotate(0 162.53681576027714 -17.553841938645775)"><path d="M0.29486516229808335 -1.3725413727544347 C3.2683313296352505 -1.4325000870197662, 2.077124550261736 1.4229611617540794, 18.805387047970104 -1.4425315786306956 C35.53364954567847 -4.308024319015471, 66.0739169390271 -13.15904591076455, 100.66444014854828 -18.565497815063082 C135.25496335806946 -23.971949719361614, 197.68800880819668 -31.246006512541186, 226.3485263050972 -33.88124300442189 C255.00904380199773 -36.516479496302594, 258.3558829145326 -36.31365241172672, 272.62754512995144 -34.37691676634731 C286.8992073453703 -32.44018112096789, 303.3061205098088 -27.013450041475025, 311.9784995976105 -22.26082913214542 C320.6508786854122 -17.508208222815817, 322.4415146808884 -8.624278900133575, 324.66181965676174 -5.861191310369694 C326.88212463263505 -3.0981037206058137, 325.5392706756066 -5.662626718136037, 325.30032945285046 -5.682303593562139 M-1.0094693568348885 0.735885559565564 C1.7556564732258195 0.3895061733603826, 1.1758297774132522 0.36298099244291304, 18.061837066629337 -3.2036808787440156 C34.94784435584542 -6.770342749930944, 65.5811641197423 -15.730385607186768, 100.30657437846163 -20.66408566755601 C135.03198463718098 -25.59778572792525, 197.89952281124997 -30.493565126333248, 226.41429861894534 -32.805881240959465 C254.9290744266407 -35.118197355585686, 257.47403655791715 -36.65913259486616, 271.3952292246338 -34.53798235531332 C285.31642189135044 -32.41683211576048, 301.0022001857365 -25.19141333265814, 309.9414546192452 -20.07897980364241 C318.88070905275384 -14.966546274626683, 322.55548598079 -6.135661349775399, 325.03075582568573 -3.863381181218946 C327.50602567058144 -1.591101012662493, 324.85704401513146 -6.375754513370359, 324.79307368861936 -6.445298792303694" stroke="#000000" stroke-width="1" fill="none"></path></g></g><g transform="translate(789.6678044436901 456.3301814789687) rotate(0 16.5 11.5)"><text x="16.5" y="18" font-family="Helvetica, Segoe UI Emoji" font-size="20px" fill="#000000" text-anchor="middle" style="white-space: pre;" direction="ltr">Yes</text></g><g><g transform="translate(877.617198100407 459.02770946404337) rotate(0 0.6017641667611997 34.21902628339882)"><path d="M-0.659285132959485 -0.35265308730304235 C-0.3286003084120845 11.159947961904281, 1.6345696667146208 58.639558589645596, 1.862813466481748 70.02145247027381 M1.19545144289732 -1.5833999034762383 C1.4034753277512695 9.522981203161352, 0.7378539539438012 56.68538742940958, 1.063249970145407 68.39192081876202" stroke="#000000" stroke-width="1" fill="none"></path></g></g><g><g transform="translate(1037.5747540705559 377.70588110583446) rotate(0 79.55766424426054 55.64095936078178)"><path d="M-1.023018817976117 0.25863747484982014 C12.145011966818227 0.3012028325349092, 62.175469897537276 0.23426637431023, 78.0436995950708 1.1944689620286224 C93.91192929260433 2.1546715497470146, 89.47162572206821 3.7577221750712546, 94.18635936722504 6.0198530011601745 C98.90109301238186 8.281983827249094, 101.0790578277753 10.279687816536619, 106.33210146601178 14.767253918562142 C111.58514510424826 19.254820020587665, 116.73691355656298 16.708859745670697, 125.7046211966439 32.94524961331332 C134.67232883672483 49.18163948095595, 154.54526803329475 99.31478056926375, 160.13834730649728 112.1855931244179 M0.6407575732469559 -0.651181796193123 C13.725495008298413 -0.9919018775224688, 61.52086404941862 -1.094628161663438, 77.03766708116922 -0.3010095816850662 C92.55447011291982 0.4926089982933056, 88.89347973713542 1.472883484835044, 93.74157576375053 4.1105296836771075 C98.58967179036564 6.74817588251917, 101.01064143564265 10.75202318187673, 106.12624324085988 15.524867611367313 C111.2418450460771 20.297712040857895, 115.70733388918848 16.70873591158225, 124.43518659505385 32.7475962606206 C133.16303930091922 48.78645660965894, 152.55767274998018 98.54285969089811, 158.49335947605212 111.75802970559741" stroke="#000000" stroke-width="1" fill="none"></path></g></g><g transform="translate(1044.9105749660782 336.114929613297) rotate(0 13 11.5)"><text x="13" y="18" font-family="Helvetica, Segoe UI Emoji" font-size="20px" fill="#000000" text-anchor="middle" style="white-space: pre;" direction="ltr">No</text></g><g><g transform="translate(1197.8132102272727 646.6266233766231) rotate(0 0.3367421529110288 42.18440065801673)"><path d="M0.497693644836545 0.16992990486323833 C0.7890704899760446 14.04306621346179, 1.0687078549128577 69.70408739762026, 1.3736402267857557 83.91605465409478 M-0.7001559209637345 -0.7864608404226601 C-0.5789577461113672 13.182082038014416, -0.2594905160765546 71.09052136771025, 0.1559745311818186 85.15526215645616" stroke="#000000" stroke-width="1" fill="none"></path></g></g><g transform="translate(1127.5464691558443 647.7159090909089) rotate(0 16.5 11.5)"><text x="16.5" y="18" font-family="Helvetica, Segoe UI Emoji" font-size="20px" fill="#000000" text-anchor="middle" style="white-space: pre;" direction="ltr">Yes</text></g><g><g transform="translate(1047.6566552407792 811.9113441642347) rotate(0 -28.372434934053445 37.22544790501661)"><path d="M-4.179532526210587 0.802263556793332 C-6.828307879870115 1.0025662536845172, -16.4510291093996 -0.32061436996009574, -21.78494801725116 0.40349071311984386 C-27.118866925102722 1.1275957961997833, -31.88903723690325 1.1179485058520742, -36.18304597331995 5.14689405527297 C-40.47705470973665 9.175839604693866, -45.02155598577237 13.978063316031013, -47.54900043575135 24.577164009645216 C-50.07644488573033 35.17626470325942, -50.9658410243271 60.50107512026778, -51.34771267319384 68.74149821695818 C-51.72958432206058 76.98192131364857, -50.16028870162357 73.4132936288247, -49.84023032895182 74.01970258978761 C-49.520171956280066 74.62611155075052, -49.49355276337717 72.77100783610888, -49.42736243716333 72.37995198273565 M-5.202226574719589 0.17784797877073277 C-7.961284080078183 0.6684060100392069, -18.150641564395112 1.0465705416336992, -22.909314746138122 2.0371206105801853 C-27.667987927881132 3.0276706795266715, -29.61616969283336 2.227168303329201, -33.75426566517764 6.12114839244965 C-37.89236163752192 10.0151284815701, -44.60271196741736 14.817673330812369, -47.73789058020381 25.40100114530288 C-50.87306919299026 35.984328959793395, -52.460817513498476 61.71096632830551, -52.56533734189632 69.62111527939273 C-52.66985717029416 77.53126423047995, -49.041785512164125 72.6507520256022, -48.365009550590855 72.8618948518262 C-47.688233589017585 73.07303767805018, -48.19928191616092 70.6190738116408, -48.5046815724567 70.88797223673666" stroke="#000000" stroke-width="1" fill="none"></path></g></g><g><g transform="translate(1350.8042816558434 809.1771867270087) rotate(0 44.63637789166796 41.57384170492486)"><path d="M-0.1652438890188932 1.1122331690043212 C4.870055342305999 0.7778123807162047, 22.876476034681808 -1.3655592567743717, 30.975604579012405 -0.9730629254132509 C39.074733123343 -0.5805665940521302, 43.03842301200187 1.943288572058292, 48.429527376964685 3.4672111571710458 C53.8206317419275 4.991133742283799, 56.956893212472515 0.7113355319122006, 63.32223076878927 8.170472585263273 C69.68756832510603 15.629609638614344, 82.01127593575856 35.55598490575071, 86.62155271486522 48.22203347727748 C91.23182949397187 60.88808204880424, 90.50002670176323 78.48315838637546, 90.98389144342919 84.16676401442385 M-1.7111356600932777 0.6505516373924913 C3.152447816365016 0.9549276834540072, 22.145272708937092 -0.10129628007206884, 30.346392144366664 0.0535042899660767 C38.547511579796236 0.20830486000422224, 41.946571408855235 0.5945530804807558, 47.49558095248416 1.5793550576213646 C53.04459049611309 2.5641570347619735, 57.29597927323864 -1.7854252261934649, 63.64044940614021 5.96231615280973 C69.98491953904178 13.710057531812925, 81.29272141718185 35.12081868931394, 85.56240174989358 48.06580333164053 C89.83208208260531 61.01078797396712, 88.53159308226776 77.6139117199999, 89.25853140241061 83.63222400676926" stroke="#000000" stroke-width="1" fill="none"></path></g></g><g><g transform="translate(1353.873478084415 569.2326501623376) rotate(0 69.417803106674 0.1610944912502532)"><path d="M1.1622842062264682 -0.1790812421590089 C24.382877597940134 0.04137540514624724, 115.71092755115117 0.16804780191960925, 138.522261528192 0.22729877600709192 M0.31334468515589853 -1.3187028396315874 C23.478349412457067 -0.8186660480401756, 114.95365111530286 1.1972129673998355, 137.7681299293655 1.6408918221321165" stroke="#000000" stroke-width="1" fill="none"></path></g></g><g transform="translate(1358.261870941558 528.8598823051944) rotate(0 13 11.5)"><text x="13" y="18" font-family="Helvetica, Segoe UI Emoji" font-size="20px" fill="#000000" text-anchor="middle" style="white-space: pre;" direction="ltr">No</text></g><g transform="translate(1003.2607548701296 769.1444805194805) rotate(0 16.5 11.5)"><text x="16.5" y="18" font-family="Helvetica, Segoe UI Emoji" font-size="20px" fill="#000000" text-anchor="middle" style="white-space: pre;" direction="ltr">Yes</text></g><g transform="translate(1344.9973620129865 768.7705965909089) rotate(0 13 11.5)"><text x="13" y="18" font-family="Helvetica, Segoe UI Emoji" font-size="20px" fill="#000000" text-anchor="middle" style="white-space: pre;" direction="ltr">No</text></g><g transform="translate(192.2926136363635 509.6079545454544) rotate(0 16.5 11.5)"><text x="16.5" y="18" font-family="Helvetica, Segoe UI Emoji" font-size="20px" fill="#000000" text-anchor="middle" style="white-space: pre;" direction="ltr">Yes</text></g><g transform="translate(606.0411931818182 516.8025568181818) rotate(0 13 11.5)"><text x="13" y="18" font-family="Helvetica, Segoe UI Emoji" font-size="20px" fill="#000000" text-anchor="middle" style="white-space: pre;" direction="ltr">No</text></g><g transform="translate(10 354.6732954545454) rotate(0 113.75 28.441051136363626)"><path d="M-0.4656784098560643 -1.2932301620771756 C80.38310884306564 -0.015800891103031567, 155.84185221514514 -0.9852400141407871, 226.54148711884596 -1.482270183961438 M-0.006344547718250193 -0.47661690765505194 C50.98581626331912 -0.8136592779061638, 101.41455550615638 -1.1186854821977756, 227.15558678509814 -0.24772852471079584 M229.0234290082007 1.441654859110713 C225.62969367429773 16.60871541158717, 229.26736890003244 30.65803724030874, 226.5311202127486 56.085891862653874 M226.97200345899904 -0.9210306545719504 C228.0520571321687 12.683041716836506, 226.9398678690633 23.933584158130216, 226.961638062261 57.61300567562946 M226.7298282409404 55.37990871007673 C172.46111536566025 56.96897954976886, 116.51136929081231 57.192554222251886, -0.7543994215462636 58.25275681303606 M227.17573236280623 57.07364929548529 C139.70756365020003 57.71750950712304, 52.983609988717475 57.34811772755028, -0.31974996381824555 56.48718880219549 M-0.7348234932869673 58.21725781752982 C1.6524902398046504 42.443268509312475, 2.1600804740842827 24.855617625777747, -0.9494185131043196 -1.3810460586100817 M-0.11745339725166559 57.28916353757747 C-1.1148440147892291 40.233970556709124, -0.4866672958389575 25.236685634007284, -0.20945522282272577 -0.6130608757957816" stroke="#000000" stroke-width="1" fill="none"></path></g><g transform="translate(18.96377840909099 372.4204545454544) rotate(0 103 11.5)"><text x="103" y="18" font-family="Helvetica, Segoe UI Emoji" font-size="20px" fill="#000000" text-anchor="middle" style="white-space: pre;" direction="ltr">ProviderContainer.read</text></g><g><g transform="translate(318.293512346581 304.0624474988712) rotate(0 -118.5790976197726 22.755187237255882)"><path d="M-35.12524492857718 -1.0109087157994507 C-51.776159248279086 -0.8328972039646496, -110.81735169519403 -1.2379385056183514, -134.4431809100172 0.8801582471122794 C-158.06901012484036 2.99825499984291, -167.29343596353604 8.707418356715841, -176.88022021751613 11.697671800584333 C-186.4670044714962 14.687925244452824, -188.03056090246486 14.940823499598212, -191.96388643389773 18.821678910323232 C-195.8972119653306 22.70253432104825, -198.85814064228578 30.341026144494553, -200.4801734061133 34.98280426493445 C-202.1022061699408 39.624582385374346, -201.6038403114 45.255138816872595, -201.69608301686287 46.67234763296262 C-201.78832572232574 48.089556449052644, -201.20386367545694 43.797761154148304, -201.0336296388904 43.486057161474584 M-33.47215832028278 1.0727602630667388 C-49.69898805229147 0.887904314054639, -108.62687030459487 -2.510732893499064, -132.1379020601733 -1.0844809384988792 C-155.64893381575175 0.3417710165013055, -164.5413333534211 6.202511216039909, -174.53834885375338 9.630271993067847 C-184.53536435408566 13.058032770095785, -187.5631484703866 15.176332349870957, -192.11999506216702 19.482083723668755 C-196.67684165394743 23.78783509746655, -199.97042912661698 31.053598992155184, -201.87942840443586 35.464780235854626 C-203.78842768225473 39.87596147955407, -203.83991088508384 44.27247652480564, -203.5739907290803 45.94917118586541 C-203.30807057307675 47.62586584692518, -200.64536403975683 45.70367603543358, -200.28390746841453 45.52494820221325" stroke="#000000" stroke-width="1" fill="none"></path></g></g><g><g transform="translate(424.6093750000001 220.6249999999999) rotate(0 -0.046109013286809386 -48.93426562068475)"><path d="M-0.7386745143681764 0.24251693375408645 C-1.017153507075985 -15.787015822112103, -1.3279740060482406 -80.08362474083673, -1.3540112110363225 -96.09562247778202 M1.0743826362490654 -0.6757656213641168 C1.1619614233302278 -17.10021018381371, 1.4826234706874706 -81.90282523132632, 1.0087706781787893 -98.11104817512357" stroke="#000000" stroke-width="1" fill="none"></path></g></g><g transform="translate(187.65625000000023 10) rotate(0 242.002840909091 54.59517045454544)"><path d="M224.9663874490953 -0.15156377472798965 C247.15412131594692 -1.3769521836218246, 274.16102765856004 -0.21156281649308295, 297.40917500814385 1.1144899449587058 C320.65732235772765 2.4405427064104943, 344.0902599824318 4.916422870676607, 364.45527154659806 7.804752793982743 C384.8202831107643 10.69308271728888, 403.5310059087608 14.751663164166157, 419.5992443931415 18.44446948479552 C435.66748287752216 22.13727580542488, 450.75339273415887 25.163437640811527, 460.8647024528823 29.961590717758916 C470.9760121716057 34.75974379470631, 476.7184735068397 41.95062334711181, 480.267102705482 47.233387946479866 C483.8157319041243 52.51615254584792, 485.465538167105 56.406556344949834, 482.15647764473584 61.65817831396725 C478.84741712236666 66.90980028298466, 470.6922925647563 73.9032118910765, 460.412739571267 78.74311976058434 C450.13318657777774 83.58302763009218, 436.50897856554735 86.81790315949031, 420.47915968380016 90.69762553101432 C404.449340802053 94.57734790253834, 384.36150123981975 99.12489206151595, 364.23382628078394 102.02145398972841 C344.10615132174814 104.91801591794088, 322.46638838911855 106.9744597490866, 299.71310992958547 108.0769971002891 C276.9598314700524 109.1795344514916, 251.44733364908677 108.91641861370377, 227.71415552358548 108.63667809694344 C203.98097739808418 108.35693758018311, 179.54130716648325 108.09366537114964, 157.31404117657772 106.39855399972716 C135.08677518667218 104.70344262830467, 113.08407534995173 101.7340048654711, 94.35055958415231 98.46600986840852 C75.61704381835288 95.19801487134593, 58.65637178223903 91.27155231454779, 44.91294658178117 86.79058401735163 C31.169521381323314 82.30961572015548, 19.272489472795254 76.76561096671855, 11.890008381405181 71.58020008523158 C4.507527290015109 66.39478920374461, 0.9893405305048144 60.954736712191746, 0.6180600334407416 55.678118728429794 C0.24677953637666877 50.40150074466784, 3.306379979188857 44.953131411378095, 9.662325399020744 39.920492182659885 C16.01827081885263 34.887852953941675, 26.049220681207352 29.93197662390225, 38.75373255243207 25.482283356120522 C51.45824442365679 21.032590088338793, 67.74990000790295 16.79630814598684, 85.88939662636903 13.222332575969503 C104.02889324483512 9.648357005952167, 125.85575477603967 6.201756562281609, 147.59071226322854 4.038429936016513 C169.3256697504174 1.8751033097514167, 202.18472564098784 0.7467360681050863, 216.2991415495022 0.2423728183789251 C230.41355745801656 -0.2619904313472361, 228.0197382489898 0.8345488276523506, 232.2772077143146 1.0122504376595458 C236.53467717963943 1.189952047666741, 241.45423448884657 0.6894438220645279, 241.84395834145113 1.308582478422096 M126.29678257948358 6.483320301268314 C144.6156729389071 3.07985563382039, 172.40284778671725 0.931485621719985, 195.71270508953745 -0.20181544067250456 C219.02256239235766 -1.335116503064994, 242.97058682367955 -1.2149422702423522, 266.1559263964048 -0.31648607308662235 C289.34126596913006 0.5819701240691076, 313.17825938473936 3.036148154975686, 334.82474252588906 5.188921742261876 C356.47122566703877 7.341695329548065, 377.8459579288226 9.378866038333168, 396.03482524330315 12.600155450630517 C414.2236925577837 15.821444862927866, 430.9975281645141 20.03948590978391, 443.95794641277246 24.516658216045972 C456.9183646610308 28.993830522308034, 467.0639577338431 34.377662451538875, 473.79733473285313 39.463189288202884 C480.53071173186316 44.54871612486689, 484.4942259227928 49.518329921245645, 484.35820840683266 55.02981923603003 C484.2221908908725 60.54130855081441, 480.2378209217558 67.50682208185036, 472.98122963709216 72.53212517690919 C465.7246383524285 77.55742827196802, 454.5743972523104 80.97770999509967, 440.8186606988505 85.18163780638301 C427.06292414539064 89.38556561766634, 409.2794652882242 94.32665076712028, 390.44681031633274 97.75569204460919 C371.6141553444413 101.1847333220981, 349.6293992693577 103.87427600801988, 327.822730867502 105.75588547131642 C306.0160624656463 107.63749493461296, 283.2631561704196 108.51184758776921, 259.6067999051988 109.04534882438848 C235.95044363997795 109.57885006100776, 208.93067690316278 110.32000888947633, 185.88459327617707 108.95689289103201 C162.83850964919137 107.5937768925877, 141.6678893008015 103.65432166286816, 121.33029814328454 100.86665283372264 C100.99270698576755 98.07898400457712, 79.94467584135741 96.19419441792176, 63.85904633107518 92.23087991615891 C47.773416820792946 88.26756541439606, 34.834542447415465 81.95502209461996, 24.816521081591162 77.08676582314553 C14.79849971576686 72.21850955167109, 7.2528195982308805 68.26658636592114, 3.7509181361293713 63.02134228731228 C0.24901667402786165 57.77609820870342, 0.3042106519754717 50.7237278541402, 3.8051123089821033 45.615301351492356 C7.306013965988734 40.50687484884451, 14.770902865512133 37.117735743717056, 24.75632807816916 32.370783271425196 C34.74175329082619 27.623830799133337, 47.76011683276601 21.358593061170797, 63.71766358492428 17.133586517741193 C79.67521033708255 12.90857997431159, 109.75774210813154 8.558952498192031, 120.50160859111878 7.020744010847565 C131.24547507410603 5.482535523503099, 126.69985034362236 7.977631652209753, 128.18086248284772 7.904335593674396 C129.66187462207307 7.83103953513904, 127.51098519053318 5.97745901467935, 129.38768142647092 6.5809676596354265" stroke="#000000" stroke-width="1" fill="none"></path></g></svg>